<?xml version="1.0" encoding="UTF-8" standalone="no"?>
<svg
   height="24.000174"
   version="1.1"
   viewBox="0 0 21.213859 24.00017"
   width="21.21386"
   id="svg1"
   sodipodi:docname="coworker24x24_3.svg"
   inkscape:version="1.4 (86a8ad7, 2024-10-11)"
   xmlns:inkscape="http://www.inkscape.org/namespaces/inkscape"
   xmlns:sodipodi="http://sodipodi.sourceforge.net/DTD/sodipodi-0.dtd"
   xmlns="http://www.w3.org/2000/svg"
   xmlns:svg="http://www.w3.org/2000/svg">
  <sodipodi:namedview
     id="namedview1"
     pagecolor="#ffffff"
     bordercolor="#000000"
     borderopacity="0.25"
     inkscape:showpageshadow="2"
     inkscape:pageopacity="0.0"
     inkscape:pagecheckerboard="0"
     inkscape:deskcolor="#d1d1d1"
     inkscape:zoom="22.627417"
     inkscape:cx="22.163378"
     inkscape:cy="11.026446"
     inkscape:window-width="1920"
     inkscape:window-height="1094"
     inkscape:window-x="-11"
     inkscape:window-y="-11"
     inkscape:window-maximized="1"
     inkscape:current-layer="svg1"
     showgrid="false" />
  <defs
     id="defs1" />
  <path
     d="M 5.6859451,5.395699 C 4.2488018,6.711192 3.8128603,8.8008363 3.5822476,10.65243 3.3938902,12.540821 3.4490991,14.568587 3.4490991,14.568587 L 0.18710326,15.97177 c 0,0 0.0182084,-1.146818 0.0559115,-1.977991 0.030974,-1.976488 0.0284011,-3.922606 0.40214718,-5.8720362 C 1.4765413,4.5673634 4.3404076,1.6170057 7.8033681,0.59681352 11.177513,-0.44925946 15.047301,0.35496551 17.719248,2.6832137 18.762131,3.5674448 19.721404,4.632288 20.309088,5.8670825 19.634281,6.2743228 19.25243,6.4503363 18.723556,6.7409495 18.214277,7.0208128 17.869487,7.1593845 17.194669,7.5785911 15.761207,4.7156071 12.513748,2.7821484 9.4207837,3.4638719 8.0297057,3.7320359 6.709086,4.4060457 5.6858957,5.395699 Z M 17.936006,18.593835 c 0.019,-2.565359 -0.01771,-5.147875 0.0284,-7.70287 0.989683,-0.584115 3.123197,-1.7460728 3.123197,-1.7460728 0,0 0.01781,0.018196 0,2.4434018 0.005,8.192006 0.0474,8.163366 0.0089,12.259998 C 20.257596,23.502604 20.264988,23.477801 19.814045,23.258383 16.67872,21.617584 13.567209,19.914391 10.416602,18.312539 7.0389341,20.079033 0.16356105,23.845207 0.16356105,23.845207 l -0.0180104,-2.332125 0.007917,-1.632443 c 0,0 7.03870395,-3.555279 10.28011535,-5.125329 0.919927,0.397539 1.796699,0.943362 2.704088,1.386036 1.592063,0.811593 3.16189,1.684401 4.764799,2.466117 0.0101,2.68e-4 0.02167,3.76e-4 0.02939,-0.008"
     fill="none"
     stroke="#000000"
     stroke-width="0.0259368"
     id="path1"
     sodipodi:nodetypes="cccccccccaccccccccccccccccc" />
</svg>
