<?xml version="1.0" encoding="UTF-8" standalone="no"?>
<svg
   height="600px"
   version="1.1"
   viewBox="-2083.8650000000025 -2384.8650000000157 24887.730000000014 28499.730000000018"
   width="524px"
   id="svg1"
   sodipodi:docname="coworker -M .svg"
   inkscape:version="1.4 (86a8ad7, 2024-10-11)"
   xmlns:inkscape="http://www.inkscape.org/namespaces/inkscape"
   xmlns:sodipodi="http://sodipodi.sourceforge.net/DTD/sodipodi-0.dtd"
   xmlns="http://www.w3.org/2000/svg"
   xmlns:svg="http://www.w3.org/2000/svg">
  <sodipodi:namedview
     id="namedview1"
     pagecolor="#ffffff"
     bordercolor="#000000"
     borderopacity="0.25"
     inkscape:showpageshadow="2"
     inkscape:pageopacity="0.0"
     inkscape:pagecheckerboard="0"
     inkscape:deskcolor="#d1d1d1"
     inkscape:zoom="1.4142136"
     inkscape:cx="289.91378"
     inkscape:cy="338.3506"
     inkscape:window-width="1920"
     inkscape:window-height="1094"
     inkscape:window-x="-11"
     inkscape:window-y="-11"
     inkscape:window-maximized="1"
     inkscape:current-layer="svg1"
     showgrid="false" />
  <defs
     id="defs1">
    <linearGradient
       id="swatch3"
       inkscape:swatch="solid">
      <stop
         style="stop-color:#ffffff;stop-opacity:0.66666667;"
         offset="0"
         id="stop3" />
    </linearGradient>
  </defs>
  <path
     d="M 5850.3749,6433.3651 C 4529.8684,7631.7912 4129.3028,9535.4781 3917.4106,11222.297 3744.3364,12942.645 3795.063,14789.962 3795.063,14789.962 l -2997.24999,1278.31 c 0,0 16.7225,-1044.756 51.41985,-1801.966 28.45066,-1800.601 26.12996,-3573.543 369.50644,-5349.4888 763.9045,-3238.0753 3395.3398,-5925.8783 6577.2497,-6855.2865 3100.297,-952.9785 6656.018,-220.3273 9111.108,1900.7306 958.241,805.5441 1839.664,1775.6254 2379.655,2900.5331 -620.041,371.0005 -970.903,531.3502 -1456.853,796.1103 -467.948,254.9516 -784.751,381.1937 -1404.802,763.0915 C 15107.969,5813.7932 12124.08,4052.3896 9282.1387,4673.4513 8003.958,4917.7536 6790.5124,5531.7849 5850.3749,6433.3651 Z M 17106.221,18457.004 c 2133.48,853.72 2996.573,1266.559 2996.573,1266.559 0,0 -74.811,1373.591 -92.777,3520.304 -1860.363,-761.986 -5060.533,-2137.835 -5060.533,-2137.835 L 9924.6268,23234.593 4070.6993,21290.795 c 0,0 -1618.3966,1042.214 -2259.1435,1389.018 -640.7469,346.804 -1035.58301,561.243 -1035.58301,561.243 l -16.58444,-2124.596 7.67897,-1487.171 3253.45248,-1679.664 5890.0519,2216.459 4852.5163,-2767.777"
     fill="none"
     stroke="#000000"
     stroke-width="23.73"
     id="path1"
     sodipodi:nodetypes="cccccccccacccccccccscccccc"
     style="fill:#7c5cfa;fill-opacity:1" />
</svg>
