<?xml version="1.0" encoding="UTF-8" standalone="no"?>
<svg
   height="23.999998"
   version="1.1"
   viewBox="-2083.865 -2384.865 1007.544 1139.8715"
   width="21.213842"
   id="svg1"
   sodipodi:docname="coworker24x24_2.svg"
   inkscape:version="1.4 (86a8ad7, 2024-10-11)"
   xmlns:inkscape="http://www.inkscape.org/namespaces/inkscape"
   xmlns:sodipodi="http://sodipodi.sourceforge.net/DTD/sodipodi-0.dtd"
   xmlns="http://www.w3.org/2000/svg"
   xmlns:svg="http://www.w3.org/2000/svg">
  <sodipodi:namedview
     id="namedview1"
     pagecolor="#ffffff"
     bordercolor="#000000"
     borderopacity="0.25"
     inkscape:showpageshadow="2"
     inkscape:pageopacity="0.0"
     inkscape:pagecheckerboard="0"
     inkscape:deskcolor="#d1d1d1"
     inkscape:zoom="22.627418"
     inkscape:cx="4.3973201"
     inkscape:cy="15.180698"
     inkscape:window-width="1920"
     inkscape:window-height="1094"
     inkscape:window-x="-11"
     inkscape:window-y="-11"
     inkscape:window-maximized="1"
     inkscape:current-layer="svg1"
     showgrid="false" />
  <defs
     id="defs1" />
  <path
     d="m -1817.3248,-2132.1045 c -68.9747,63.1764 -89.8974,163.5314 -100.9653,252.454 -9.0402,90.69 -6.3906,188.0733 -6.3906,188.0733 l -156.5567,67.3876 c 0,0 0.8735,-55.0757 2.6858,-94.9927 1.4861,-94.9207 1.3649,-188.3832 19.3006,-282.0041 39.9013,-170.699 177.3502,-312.3894 343.5525,-361.3842 161.9391,-50.2375 347.6667,-11.6148 475.9045,100.1991 50.0523,42.4653 96.092,93.6042 124.2975,152.905 -32.3869,19.5577 -50.7136,28.0106 -76.0964,41.9677 -24.4425,13.44 -40.9903,20.095 -73.3776,40.2273 -68.7982,-137.4944 -224.6571,-230.3488 -373.1014,-197.6088 -66.7638,12.8786 -130.1461,45.2479 -179.2529,92.7758 z m 587.9318,633.8394 c 0.9131,-123.2012 -0.8496,-247.2264 1.363,-369.9296 47.4992,-28.0524 149.8951,-83.8553 149.8951,-83.8553 0,0 0.8539,0.8741 0,117.3442 0.2379,393.4204 2.2727,392.045 0.4191,588.7857 -40.2608,-16.602 -39.9061,-17.7929 -61.5486,-28.3307 -150.4797,-78.7992 -299.8142,-160.5946 -451.0249,-237.5237 -162.1084,84.836 -492.0869,265.7062 -492.0869,265.7062 l -0.8662,-112.0005 0.4011,-78.3978 c 0,0 337.8169,-170.742 493.386,-246.1436 44.1508,19.0921 86.2308,45.305 129.7802,66.5643 76.41,38.9767 151.7524,80.8936 228.6828,118.4353 0.4822,0.013 1.0399,0.018 1.4082,-0.3633"
     fill="none"
     stroke="#000000"
     stroke-width="1.24521"
     id="path1"
     sodipodi:nodetypes="cccccccccaccccccccccccccccc" />
</svg>
