<?xml version="1.0" encoding="UTF-8" standalone="no"?>
<svg
   height="24.000359"
   version="1.1"
   viewBox="-2083.865 -2384.865 1016.8604 1139.8886"
   width="21.41"
   id="svg1"
   sodipodi:docname="coworker24x24.svg"
   inkscape:version="1.4 (86a8ad7, 2024-10-11)"
   xmlns:inkscape="http://www.inkscape.org/namespaces/inkscape"
   xmlns:sodipodi="http://sodipodi.sourceforge.net/DTD/sodipodi-0.dtd"
   xmlns="http://www.w3.org/2000/svg"
   xmlns:svg="http://www.w3.org/2000/svg">
  <sodipodi:namedview
     id="namedview1"
     pagecolor="#ffffff"
     bordercolor="#000000"
     borderopacity="0.25"
     inkscape:showpageshadow="2"
     inkscape:pageopacity="0.0"
     inkscape:pagecheckerboard="0"
     inkscape:deskcolor="#d1d1d1"
     inkscape:zoom="22.627418"
     inkscape:cx="26.914251"
     inkscape:cy="15.136504"
     inkscape:window-width="1920"
     inkscape:window-height="1094"
     inkscape:window-x="-11"
     inkscape:window-y="-11"
     inkscape:window-maximized="1"
     inkscape:current-layer="svg1"
     showgrid="false" />
  <defs
     id="defs1" />
  <path
     d="m -1811.0511,-2127.9297 c -68.9751,62.6416 -89.8979,162.147 -100.9659,250.3167 -9.0402,89.9223 -6.3906,186.4812 -6.3906,186.4812 l -156.5575,66.8171 c 0,0 0.8735,-54.6095 2.6858,-94.1886 1.4861,-94.117 1.3649,-186.7883 19.3007,-279.6167 39.9015,-169.2538 177.3511,-309.7448 343.5543,-358.3248 161.9399,-49.8121 347.6685,-11.5164 475.907,99.3509 50.0526,42.1058 96.0926,92.8118 124.2982,151.6105 -32.387,19.3922 -50.7138,27.7735 -76.0968,41.6125 -24.4426,13.3262 -40.9906,19.9248 -73.378,39.8867 -68.7986,-136.3304 -224.6583,-228.3987 -373.1034,-195.9359 -66.7642,12.7696 -130.1468,44.8649 -179.2538,91.9904 z m 587.9348,628.4735 c 0.9131,-122.1582 -0.8496,-245.1335 1.363,-366.7979 47.4996,-27.8149 149.896,-83.1455 149.896,-83.1455 0,0 0.8539,0.8668 0,116.3508 0.2379,390.0899 2.2727,388.7262 0.4191,583.8013 -40.261,-16.4615 -39.9063,-17.6423 -61.5489,-28.0909 -150.4806,-78.1321 -299.8159,-159.235 -451.0274,-235.5128 -162.1092,84.1177 -492.0894,263.4568 -492.0894,263.4568 l -0.8662,-111.0524 0.4011,-77.7341 c 0,0 337.8186,-169.2966 493.3886,-244.0599 44.151,18.9306 86.2312,44.9216 129.7808,66.0009 76.4104,38.6467 151.7532,80.2087 228.684,117.4326 0.4822,0.013 1.0399,0.018 1.4082,-0.3602"
     fill="none"
     stroke="#000000"
     stroke-width="1.23993"
     id="path1"
     sodipodi:nodetypes="cccccccccaccccccccccccccccc" />
</svg>
