<?xml version="1.0" standalone="no"?>
<!DOCTYPE svg PUBLIC "-//W3C//DTD SVG 20010904//EN"
 "http://www.w3.org/TR/2001/REC-SVG-20010904/DTD/svg10.dtd">
<svg version="1.0" xmlns="http://www.w3.org/2000/svg"
 width="1746.000000pt" height="2000.000000pt" viewBox="0 0 1746.000000 2000.000000"
 preserveAspectRatio="xMidYMid meet">
<metadata>
Created by potrace 1.12, written by Peter Selinger 2001-2015
</metadata>
<g transform="translate(0.000000,2000.000000) scale(0.100000,-0.100000)"
fill="#000000" stroke="none">
<path d="M0 10000 l0 -10000 8730 0 8730 0 0 10000 0 10000 -8730 0 -8730 0 0
-10000z m9450 8590 c267 -12 452 -28 487 -41 14 -5 105 -19 202 -30 97 -11
221 -31 276 -44 55 -14 148 -31 206 -39 58 -8 130 -24 158 -36 29 -11 87 -25
129 -31 43 -6 105 -22 139 -35 33 -14 96 -31 140 -39 43 -8 103 -26 133 -39
30 -13 82 -30 115 -36 33 -7 76 -21 96 -31 21 -10 68 -27 106 -38 38 -10 87
-28 109 -39 21 -11 66 -27 99 -37 33 -9 78 -27 100 -40 22 -12 63 -28 90 -34
28 -7 66 -23 85 -36 19 -12 60 -30 91 -39 31 -9 62 -22 68 -30 7 -8 41 -24 76
-36 35 -12 74 -29 87 -39 13 -10 46 -26 74 -35 29 -9 59 -25 69 -36 10 -11 40
-27 69 -36 28 -9 63 -27 78 -40 15 -12 50 -30 77 -39 27 -9 55 -23 62 -32 7
-8 36 -25 65 -38 28 -12 55 -28 59 -35 4 -6 28 -21 54 -32 25 -10 55 -28 66
-38 11 -11 38 -27 60 -36 22 -9 55 -29 73 -45 18 -16 39 -29 46 -29 8 0 33
-15 55 -34 23 -19 51 -38 64 -42 12 -4 36 -18 53 -33 17 -14 44 -34 60 -44 16
-9 43 -27 60 -40 18 -12 45 -30 60 -40 40 -24 93 -62 129 -92 32 -27 66 -52
153 -111 29 -19 56 -42 58 -49 3 -8 15 -17 25 -20 11 -4 35 -21 54 -38 18 -18
57 -50 85 -72 142 -110 482 -414 560 -501 8 -10 23 -24 32 -33 34 -31 118
-117 190 -193 79 -83 113 -122 237 -268 113 -133 142 -166 177 -203 17 -18 39
-47 48 -64 9 -18 21 -33 26 -33 5 0 21 -19 34 -43 14 -24 37 -54 51 -67 14
-13 25 -29 25 -37 0 -7 15 -30 33 -50 18 -21 45 -56 60 -78 61 -88 77 -111 95
-135 11 -14 27 -41 37 -60 10 -19 31 -50 46 -68 16 -18 29 -39 29 -47 0 -8 13
-29 29 -47 16 -18 36 -51 45 -73 9 -22 26 -49 36 -60 10 -11 26 -38 36 -60 9
-22 27 -55 41 -73 13 -17 29 -47 35 -65 6 -17 21 -44 34 -59 12 -15 28 -44 35
-65 7 -21 27 -60 46 -87 35 -51 41 -82 21 -108 -22 -26 -82 -65 -119 -77 -20
-6 -51 -23 -69 -36 -18 -13 -49 -30 -69 -36 -20 -6 -51 -22 -68 -36 -18 -13
-52 -31 -75 -39 -23 -8 -52 -23 -63 -34 -11 -11 -39 -26 -60 -33 -22 -8 -57
-26 -78 -40 -21 -14 -55 -31 -75 -38 -20 -7 -50 -22 -67 -34 -16 -13 -48 -28
-70 -35 -22 -7 -49 -21 -61 -31 -11 -10 -42 -26 -70 -35 -27 -9 -63 -27 -80
-40 -18 -13 -51 -31 -75 -40 -24 -10 -57 -28 -72 -40 -15 -13 -46 -28 -67 -34
-21 -6 -52 -21 -67 -34 -15 -13 -46 -29 -68 -36 -22 -7 -60 -25 -85 -40 -25
-15 -61 -33 -81 -39 -20 -7 -44 -20 -54 -31 -10 -11 -39 -27 -66 -35 -28 -9
-62 -27 -77 -39 -15 -13 -42 -28 -61 -34 -19 -7 -50 -24 -68 -38 -19 -14 -50
-30 -70 -36 -20 -5 -58 -25 -86 -44 -85 -59 -148 -43 -182 46 -12 30 -34 73
-48 94 -15 21 -27 43 -27 48 0 5 -16 31 -35 59 -19 28 -35 57 -35 63 0 7 -18
37 -40 66 -22 29 -40 58 -40 64 0 6 -12 25 -26 41 -14 17 -36 51 -49 76 -13
25 -31 51 -40 59 -9 7 -23 27 -32 44 -9 17 -25 40 -35 51 -19 20 -33 39 -104
143 -19 29 -42 56 -49 58 -8 3 -17 15 -21 26 -3 12 -20 36 -38 54 -17 18 -47
52 -67 76 -233 276 -525 561 -738 723 -14 11 -38 31 -53 45 -14 14 -43 37 -65
53 -21 15 -58 43 -83 62 -25 19 -61 43 -80 54 -19 10 -46 31 -59 45 -14 14
-30 26 -36 26 -7 0 -24 11 -39 25 -15 14 -46 35 -69 46 -23 12 -57 35 -75 50
-18 16 -39 29 -47 29 -7 0 -27 11 -43 25 -16 13 -51 34 -77 45 -26 11 -61 32
-77 45 -16 14 -35 25 -42 25 -7 0 -34 14 -61 31 -28 17 -68 38 -90 46 -21 7
-49 23 -61 34 -12 11 -43 27 -70 35 -27 8 -65 25 -85 38 -20 14 -56 30 -80 36
-24 6 -61 22 -81 35 -20 14 -58 30 -85 36 -26 6 -66 22 -88 34 -23 13 -70 31
-105 40 -35 9 -81 25 -102 36 -21 10 -68 26 -105 35 -38 8 -93 26 -123 39 -30
13 -86 29 -124 35 -38 6 -101 22 -140 35 -39 14 -118 32 -176 40 -58 9 -134
25 -169 36 -37 11 -136 26 -230 35 -91 8 -224 24 -296 36 -116 19 -169 21
-500 21 -297 0 -387 -3 -455 -16 -86 -16 -192 -28 -397 -47 -61 -6 -140 -19
-175 -30 -35 -11 -113 -26 -173 -35 -61 -8 -133 -24 -160 -35 -28 -11 -96 -29
-150 -39 -55 -11 -121 -29 -146 -40 -25 -11 -79 -28 -119 -36 -40 -9 -87 -24
-104 -34 -17 -11 -60 -27 -96 -36 -36 -9 -79 -25 -96 -35 -17 -10 -58 -25 -90
-35 -33 -9 -77 -27 -99 -40 -22 -12 -60 -28 -85 -35 -25 -6 -61 -22 -80 -36
-20 -13 -56 -30 -82 -38 -26 -7 -60 -23 -77 -35 -16 -12 -48 -28 -71 -36 -23
-8 -54 -24 -70 -35 -15 -11 -50 -29 -76 -41 -27 -11 -58 -28 -69 -38 -11 -10
-36 -24 -55 -31 -19 -7 -46 -23 -60 -35 -14 -13 -47 -32 -73 -44 -27 -11 -62
-32 -79 -46 -16 -14 -35 -25 -42 -25 -7 0 -21 -9 -32 -21 -10 -12 -40 -32 -65
-44 -25 -13 -51 -31 -59 -40 -7 -9 -30 -25 -49 -35 -20 -10 -47 -30 -60 -44
-14 -14 -30 -26 -36 -26 -6 0 -22 -12 -36 -26 -13 -14 -36 -32 -51 -40 -14 -7
-48 -32 -75 -53 -26 -22 -61 -51 -78 -65 -46 -38 -127 -107 -160 -137 -130
-120 -210 -197 -284 -273 -47 -50 -100 -104 -117 -120 -28 -28 -149 -165 -224
-256 -36 -43 -82 -104 -114 -150 -13 -19 -33 -44 -45 -54 -11 -11 -21 -25 -21
-32 0 -6 -11 -22 -25 -35 -14 -13 -35 -42 -47 -64 -11 -22 -34 -55 -49 -73
-16 -18 -29 -38 -29 -45 0 -7 -13 -28 -29 -47 -15 -19 -36 -51 -46 -70 -9 -19
-26 -44 -36 -55 -10 -11 -25 -38 -35 -60 -9 -22 -26 -53 -38 -70 -13 -16 -33
-52 -45 -80 -12 -27 -28 -56 -36 -65 -8 -9 -21 -34 -29 -57 -8 -23 -26 -58
-39 -80 -14 -21 -32 -61 -41 -90 -10 -28 -23 -57 -31 -63 -8 -6 -23 -40 -35
-75 -17 -50 -26 -64 -45 -69 -15 -4 -25 -14 -25 -24 0 -9 -11 -40 -24 -69 -14
-28 -34 -86 -45 -128 -12 -42 -30 -93 -40 -113 -10 -20 -24 -68 -31 -107 -7
-38 -23 -95 -36 -126 -13 -31 -30 -101 -39 -155 -9 -54 -24 -123 -35 -152 -11
-29 -27 -112 -36 -185 -8 -73 -24 -174 -35 -226 -23 -110 -36 -262 -43 -531
-7 -242 -16 -1553 -17 -2570 -1 -421 -5 -775 -10 -788 -5 -13 -23 -31 -40 -40
-17 -9 -44 -27 -59 -39 -15 -12 -52 -31 -82 -43 -30 -11 -63 -29 -73 -40 -9
-10 -29 -22 -45 -25 -15 -3 -51 -22 -81 -40 -29 -19 -58 -35 -64 -35 -6 0 -33
-14 -61 -31 -27 -18 -62 -36 -79 -42 -16 -5 -45 -21 -62 -34 -18 -13 -52 -30
-75 -39 -23 -8 -55 -25 -72 -38 -17 -12 -47 -28 -67 -35 -20 -6 -51 -22 -69
-36 -18 -13 -54 -31 -80 -40 -26 -9 -55 -24 -65 -35 -10 -11 -34 -24 -54 -31
-20 -6 -57 -24 -82 -40 -25 -16 -61 -34 -80 -40 -19 -7 -46 -22 -61 -35 -15
-12 -49 -30 -77 -39 -27 -8 -56 -24 -66 -35 -10 -11 -39 -26 -65 -35 -26 -9
-55 -24 -65 -35 -10 -11 -39 -27 -66 -35 -28 -9 -62 -27 -77 -39 -15 -13 -45
-29 -67 -36 -22 -7 -52 -23 -67 -36 -15 -12 -49 -30 -77 -39 -27 -8 -56 -24
-66 -35 -10 -11 -39 -26 -66 -35 -27 -9 -52 -21 -55 -27 -4 -5 -34 -23 -68
-39 -33 -16 -79 -41 -101 -54 -22 -14 -48 -25 -57 -25 -44 0 -45 12 -47 660
-2 764 17 2887 29 3150 5 107 15 362 24 565 23 553 36 762 51 840 16 81 29
186 45 370 6 72 20 163 31 204 11 40 27 135 35 210 9 75 24 161 35 191 19 55
52 218 64 320 3 30 17 82 30 115 13 33 33 99 44 146 11 47 29 101 40 120 11
19 27 61 37 94 9 33 25 71 34 85 10 14 26 55 35 90 9 36 25 79 36 97 11 17 29
60 40 94 12 35 29 75 39 89 9 14 25 48 34 77 10 28 26 62 36 75 10 13 26 48
36 77 9 29 27 65 39 79 12 15 30 50 39 78 9 29 25 59 36 69 11 10 26 39 35 66
9 26 25 59 36 72 10 14 28 47 40 73 11 27 29 58 38 69 10 11 24 37 32 57 7 21
24 50 37 65 13 15 32 47 42 69 10 23 23 45 29 49 6 3 25 33 41 65 16 32 34 61
40 65 6 3 20 25 31 48 12 23 33 56 48 73 14 17 34 44 43 60 50 83 83 132 107
160 14 17 34 44 43 60 10 16 32 48 50 70 18 23 47 61 63 84 17 23 45 59 62 80
18 20 33 42 33 47 0 5 15 23 33 40 17 17 50 54 72 83 123 161 263 314 531 583
181 182 216 216 262 260 22 20 94 84 132 116 19 17 54 48 77 68 52 46 168 140
288 233 25 19 65 51 89 70 24 19 56 43 72 53 48 28 97 64 129 92 43 37 92 70
158 105 31 17 57 35 57 40 0 5 19 19 42 31 24 12 54 31 68 44 14 12 41 28 60
35 19 7 42 21 51 30 8 10 35 28 60 40 24 13 58 33 74 45 17 13 40 26 53 30 12
3 35 17 51 30 16 14 50 34 76 45 26 11 61 32 77 45 16 14 37 25 47 25 9 0 37
13 62 29 25 15 62 34 82 40 20 7 53 24 74 38 21 14 54 30 73 35 19 6 55 22 80
38 25 15 63 33 84 40 22 7 59 25 83 40 24 15 60 31 80 35 21 4 56 17 78 30 22
13 67 31 100 40 33 9 71 25 85 35 14 10 55 26 90 35 36 9 79 25 96 36 17 10
61 26 99 34 37 9 89 27 115 40 25 13 75 29 111 35 35 6 84 21 109 34 25 13 85
31 133 40 49 10 109 26 133 37 25 10 89 26 142 35 53 9 119 25 145 35 27 11
109 28 184 39 74 11 142 24 151 29 28 15 119 30 272 46 80 8 186 24 235 34 78
17 294 34 565 45 181 7 742 5 940 -4z m7378 -6982 c15 -15 18 -11162 2 -11202
-5 -14 -16 -26 -23 -26 -21 0 -108 40 -142 65 -16 13 -48 28 -70 35 -22 7 -49
21 -61 32 -12 10 -45 28 -75 39 -30 11 -63 29 -74 39 -11 11 -40 26 -63 34
-23 8 -57 26 -75 39 -17 13 -53 31 -79 41 -25 9 -52 23 -58 31 -7 8 -37 24
-68 35 -32 12 -66 30 -77 40 -11 11 -40 26 -63 34 -23 8 -57 26 -75 39 -17 14
-50 30 -72 37 -22 7 -49 21 -60 30 -11 10 -40 26 -65 36 -25 9 -60 28 -77 41
-18 13 -51 30 -73 38 -22 8 -55 25 -73 38 -17 14 -48 30 -68 36 -20 6 -51 23
-69 36 -18 13 -49 30 -69 36 -20 7 -48 22 -63 35 -15 12 -44 28 -65 34 -21 7
-47 21 -59 32 -12 10 -45 28 -74 39 -29 11 -67 30 -84 43 -17 13 -49 29 -71
36 -22 7 -49 21 -61 31 -11 10 -42 26 -70 36 -27 9 -61 26 -76 39 -15 12 -44
28 -65 34 -21 7 -47 21 -59 32 -12 10 -45 28 -74 39 -29 11 -67 30 -84 43 -17
13 -48 29 -68 35 -20 7 -48 21 -61 31 -13 10 -44 27 -68 36 -24 10 -57 28 -72
40 -15 13 -44 28 -63 33 -20 5 -51 22 -70 36 -20 15 -51 31 -69 36 -19 6 -48
21 -64 35 -16 13 -49 31 -72 39 -24 9 -53 24 -64 35 -11 10 -44 28 -74 39 -30
11 -63 29 -75 39 -12 11 -39 25 -61 32 -22 7 -52 23 -67 36 -15 12 -49 30 -77
39 -27 8 -56 24 -66 35 -10 11 -39 27 -66 35 -28 9 -62 27 -77 39 -15 13 -45
29 -67 36 -22 7 -49 21 -61 32 -12 10 -45 28 -74 39 -29 11 -67 30 -84 43 -17
13 -48 29 -68 35 -20 7 -48 21 -61 31 -14 11 -46 29 -72 40 -26 11 -58 29 -72
40 -13 10 -41 24 -61 31 -20 6 -55 25 -76 40 -22 16 -48 29 -57 29 -9 0 -39
16 -67 35 -28 19 -62 37 -75 40 -14 4 -49 22 -78 41 -29 19 -61 34 -70 34 -9
0 -33 13 -54 30 -21 16 -55 35 -76 40 -21 6 -51 22 -68 35 -16 14 -48 32 -71
40 -23 8 -52 23 -65 33 -13 10 -45 27 -72 37 -26 10 -57 26 -68 36 -11 9 -45
27 -76 38 -31 12 -64 30 -74 41 -10 11 -35 25 -55 30 -21 6 -55 22 -76 36 -21
15 -57 33 -79 41 -21 7 -49 22 -60 33 -11 11 -40 26 -63 34 -23 8 -57 26 -75
39 -17 14 -49 30 -69 36 -20 7 -48 21 -61 32 -14 10 -54 32 -90 48 -36 16 -67
34 -71 39 -3 6 -28 18 -55 27 -27 9 -56 24 -66 35 -10 11 -39 26 -65 35 -26 9
-62 27 -80 40 -18 14 -49 30 -69 36 -20 6 -47 22 -61 34 -14 12 -48 30 -76 39
-29 9 -59 25 -69 36 -9 10 -37 26 -62 34 -25 9 -60 26 -77 39 -17 13 -52 31
-78 41 -25 9 -52 23 -58 31 -7 8 -37 24 -68 35 -32 12 -66 30 -77 40 -11 11
-40 26 -63 34 -23 8 -57 26 -75 40 -17 13 -44 27 -59 31 -14 4 -50 22 -79 41
-29 19 -61 34 -70 34 -9 0 -33 13 -53 29 -21 17 -59 37 -85 46 -27 9 -56 24
-66 35 -10 11 -39 26 -65 35 -26 9 -55 24 -65 35 -10 11 -39 26 -65 35 -26 9
-62 27 -80 40 -18 13 -54 31 -80 40 -26 9 -55 24 -65 35 -10 11 -40 27 -69 36
-28 9 -55 20 -60 25 -16 14 -43 10 -78 -11 -18 -11 -40 -20 -48 -20 -8 0 -37
-16 -64 -35 -27 -19 -57 -35 -66 -35 -8 0 -40 -15 -69 -34 -29 -19 -65 -37
-79 -41 -15 -4 -41 -17 -59 -31 -17 -13 -56 -33 -86 -44 -30 -11 -60 -27 -67
-35 -6 -8 -33 -22 -58 -31 -26 -10 -60 -28 -75 -41 -15 -12 -47 -27 -70 -34
-23 -6 -53 -21 -67 -34 -14 -12 -48 -30 -76 -39 -29 -9 -59 -25 -69 -36 -10
-11 -39 -26 -66 -35 -26 -9 -60 -25 -74 -37 -14 -11 -49 -29 -76 -39 -28 -11
-59 -28 -70 -38 -11 -10 -36 -23 -57 -29 -20 -6 -53 -23 -71 -36 -19 -14 -55
-32 -81 -41 -26 -9 -55 -24 -65 -35 -10 -11 -40 -27 -69 -36 -28 -9 -63 -27
-78 -40 -15 -12 -44 -28 -65 -34 -21 -7 -52 -23 -70 -36 -17 -13 -56 -33 -86
-44 -30 -11 -60 -27 -67 -35 -6 -8 -33 -22 -58 -31 -26 -10 -56 -25 -67 -35
-11 -10 -44 -27 -74 -38 -30 -11 -63 -29 -75 -39 -12 -11 -39 -25 -61 -32 -22
-7 -52 -23 -67 -36 -15 -12 -50 -30 -77 -39 -27 -9 -55 -22 -61 -30 -6 -7 -40
-25 -75 -41 -36 -15 -65 -31 -65 -35 0 -4 -28 -18 -61 -30 -34 -13 -74 -32
-88 -44 -14 -12 -44 -28 -66 -35 -22 -7 -52 -23 -67 -36 -15 -12 -49 -30 -77
-39 -27 -8 -56 -24 -66 -35 -10 -11 -40 -27 -69 -36 -28 -9 -60 -25 -71 -34
-11 -10 -44 -28 -74 -39 -30 -11 -63 -29 -75 -39 -12 -11 -44 -27 -72 -36 -29
-9 -59 -25 -69 -36 -9 -10 -37 -26 -61 -34 -24 -8 -58 -26 -76 -40 -18 -13
-45 -27 -60 -31 -14 -4 -50 -22 -79 -41 -29 -19 -60 -34 -69 -34 -9 0 -40 -15
-69 -34 -29 -19 -65 -37 -79 -41 -15 -4 -42 -18 -59 -31 -18 -14 -52 -32 -75
-40 -23 -8 -52 -23 -63 -34 -11 -10 -42 -27 -70 -38 -27 -10 -68 -31 -89 -45
-21 -15 -46 -27 -56 -27 -9 0 -35 -13 -56 -28 -21 -15 -59 -36 -83 -46 -24 -9
-55 -26 -68 -36 -13 -10 -46 -26 -72 -35 -27 -9 -56 -24 -66 -35 -10 -11 -39
-26 -65 -35 -26 -9 -62 -27 -81 -41 -18 -13 -50 -29 -71 -34 -20 -6 -50 -21
-65 -34 -15 -12 -43 -28 -62 -35 -19 -6 -55 -24 -80 -40 -25 -16 -62 -34 -82
-40 -20 -7 -44 -20 -54 -31 -10 -11 -40 -27 -69 -36 -28 -9 -63 -27 -78 -40
-15 -12 -49 -30 -77 -39 -27 -8 -56 -24 -66 -35 -10 -11 -41 -26 -69 -34 -29
-9 -60 -24 -70 -35 -10 -11 -38 -27 -62 -35 -24 -8 -58 -25 -76 -39 -18 -13
-54 -31 -80 -41 -25 -9 -52 -23 -58 -31 -7 -8 -37 -24 -67 -35 -30 -11 -69
-31 -86 -44 -18 -13 -47 -28 -65 -34 -18 -6 -46 -21 -62 -32 -16 -11 -47 -27
-69 -35 -23 -8 -56 -25 -74 -38 -17 -14 -49 -30 -70 -37 -21 -6 -50 -22 -65
-34 -15 -13 -45 -29 -67 -36 -22 -7 -49 -21 -60 -31 -11 -10 -50 -31 -86 -47
-37 -17 -69 -35 -73 -40 -3 -6 -30 -18 -59 -27 -28 -10 -61 -26 -72 -35 -11
-10 -44 -28 -74 -39 -30 -11 -63 -29 -75 -39 -12 -11 -44 -27 -72 -36 -29 -9
-59 -25 -69 -36 -10 -11 -39 -27 -66 -35 -28 -9 -62 -27 -77 -39 -15 -13 -45
-29 -67 -36 -22 -7 -58 -26 -79 -41 -22 -16 -47 -29 -57 -29 -9 0 -32 -11 -51
-24 -48 -32 -136 -76 -154 -76 -7 0 -20 11 -29 23 -14 21 -15 177 -13 1409 3
1347 4 1386 22 1407 11 12 27 21 36 21 9 0 37 13 61 30 24 16 65 37 90 45 26
9 55 25 65 36 9 11 41 26 70 35 28 8 59 23 69 34 10 11 40 27 69 36 28 9 65
27 81 39 17 12 48 28 70 35 22 7 55 23 73 37 18 13 54 31 80 40 26 9 56 24 67
34 11 9 44 27 74 38 29 11 61 27 70 35 9 8 39 23 66 33 28 11 68 32 89 46 21
15 47 27 56 27 9 0 35 12 56 27 21 14 61 35 88 45 28 11 62 28 77 39 15 11 47
26 70 34 24 9 57 26 74 39 17 13 50 29 72 35 22 6 52 21 67 32 15 12 51 30 79
41 29 11 61 28 72 38 11 9 43 25 71 34 29 9 60 26 69 37 10 10 40 26 66 33 26
8 64 26 85 40 22 14 55 31 74 37 19 6 49 22 65 34 17 12 45 27 64 33 19 7 55
25 80 41 25 16 64 34 87 40 22 6 49 20 59 31 9 10 38 26 64 35 26 8 62 26 81
39 19 12 53 29 75 36 22 7 54 24 71 36 17 13 50 31 74 39 24 9 52 22 61 31 9
8 39 24 67 34 27 11 67 31 87 45 21 14 54 29 74 35 20 5 52 21 70 34 19 14 56
33 82 41 26 9 53 22 59 30 7 8 37 24 67 35 31 11 67 29 80 40 13 10 46 26 72
35 27 9 56 24 66 35 10 11 40 27 69 36 28 9 65 27 81 39 17 13 48 28 70 35 22
7 54 23 70 36 17 12 54 31 84 43 29 11 61 27 70 35 9 8 41 24 73 36 31 11 61
27 68 35 6 8 35 21 63 31 29 9 61 25 73 36 12 10 45 28 75 39 29 11 65 29 79
39 14 10 50 28 79 39 29 11 61 27 70 35 9 8 41 24 73 36 31 11 61 27 68 35 7
8 37 24 68 35 32 12 64 28 72 35 9 8 41 25 72 39 31 14 59 29 62 35 3 5 37 21
75 36 38 14 75 32 81 40 6 8 33 21 59 30 26 8 63 27 82 41 18 13 50 29 71 34
20 6 50 21 65 34 15 12 49 30 76 39 26 9 59 25 74 37 14 11 50 27 78 36 29 8
60 23 70 34 10 11 39 27 66 35 28 9 62 27 77 39 15 13 50 31 78 40 29 9 60 26
69 37 10 10 40 26 67 34 26 7 63 25 80 38 18 14 47 28 65 32 18 3 49 18 69 31
20 14 59 34 87 44 27 11 59 28 71 38 12 11 44 27 72 36 29 9 60 26 70 37 9 11
41 26 70 35 28 8 59 23 69 34 10 11 39 27 66 35 28 9 62 27 77 40 15 13 48 28
72 35 25 6 54 20 65 31 12 10 48 28 80 39 32 11 69 29 80 40 12 11 44 27 71
35 28 8 59 24 69 34 9 11 40 28 69 37 28 9 60 25 71 35 11 9 45 27 76 38 31
12 64 30 73 40 24 26 97 45 152 38 28 -3 61 -16 87 -34 23 -17 58 -35 78 -42
20 -6 51 -22 69 -36 18 -13 54 -31 80 -40 26 -9 55 -24 65 -35 10 -11 39 -26
65 -35 26 -9 62 -27 81 -41 18 -13 50 -29 71 -34 20 -6 50 -21 65 -34 15 -13
46 -29 68 -36 22 -7 52 -23 67 -36 15 -12 49 -30 77 -39 27 -8 56 -24 66 -35
10 -11 40 -27 69 -36 28 -9 64 -27 79 -40 15 -13 45 -28 66 -34 21 -5 49 -19
62 -29 13 -10 54 -32 90 -49 37 -16 69 -34 73 -40 3 -6 28 -18 55 -27 27 -9
62 -27 77 -40 16 -13 41 -27 56 -30 15 -4 44 -18 64 -31 20 -14 59 -34 87 -44
27 -11 59 -28 71 -38 12 -11 38 -25 58 -31 20 -7 54 -24 75 -38 21 -14 53 -31
73 -38 19 -7 57 -27 85 -44 27 -17 54 -31 61 -31 6 0 28 -11 49 -25 20 -14 60
-35 88 -45 27 -11 59 -28 71 -38 12 -11 44 -27 72 -36 29 -9 59 -25 69 -36 9
-10 36 -25 59 -33 22 -8 58 -26 79 -40 21 -14 55 -31 75 -38 20 -6 46 -20 58
-30 11 -10 42 -26 70 -35 27 -9 60 -27 74 -39 14 -12 48 -30 76 -39 29 -9 59
-25 69 -36 10 -11 39 -26 65 -35 26 -9 55 -24 65 -35 10 -11 40 -27 69 -36 28
-9 64 -27 79 -40 15 -13 45 -28 65 -34 21 -5 52 -20 70 -34 18 -13 54 -31 80
-41 26 -10 56 -26 67 -36 11 -9 45 -27 77 -39 31 -11 61 -27 68 -35 6 -8 33
-22 58 -31 26 -10 62 -28 79 -41 18 -13 52 -31 75 -39 23 -8 52 -23 63 -33 11
-10 38 -24 60 -31 22 -7 55 -23 72 -37 18 -13 50 -30 70 -37 21 -7 60 -28 88
-45 27 -17 56 -31 66 -31 9 0 33 -13 54 -30 21 -16 54 -34 74 -40 20 -5 52
-21 70 -34 19 -14 55 -32 81 -41 26 -9 55 -24 65 -35 10 -11 39 -26 65 -35 26
-9 62 -27 80 -40 18 -13 54 -31 80 -40 26 -9 56 -25 65 -35 10 -11 35 -25 56
-30 21 -6 51 -21 66 -33 15 -13 51 -31 78 -41 28 -10 59 -27 70 -37 11 -9 45
-27 77 -39 31 -11 61 -27 68 -35 7 -8 37 -24 68 -35 32 -12 64 -28 73 -36 24
-22 158 -84 180 -84 11 0 22 6 24 13 3 6 6 1335 7 2953 3 2735 4 2942 20 2966
9 14 29 29 44 32 15 4 41 18 59 31 17 14 47 30 66 37 19 6 46 21 61 34 15 12
49 30 77 39 27 8 56 24 66 35 10 11 39 27 66 35 28 9 62 27 77 39 15 13 45 29
67 36 22 7 52 23 67 36 15 12 49 30 77 39 27 8 56 24 66 35 10 11 39 26 65 35
26 9 55 24 65 35 10 11 39 26 66 35 26 9 59 25 72 36 14 10 46 28 72 39 26 11
58 29 72 40 13 10 40 24 59 30 19 7 57 27 85 46 28 19 59 34 69 34 10 0 32 11
48 25 17 14 49 32 73 40 23 9 56 26 73 39 17 12 49 29 71 36 22 7 51 23 65 35
14 12 43 28 65 35 22 7 55 23 72 37 18 13 51 30 74 38 22 8 54 26 70 39 16 13
45 30 66 36 21 7 53 23 70 37 18 13 51 30 74 38 22 8 54 26 71 40 32 27 57 32
76 13z"/>
</g>
</svg>
