<svg xmlns="http://www.w3.org/2000/svg" viewBox="-112.1 1657.29 20090 21620">
<path xmlns="http://www.w2000/svg" d="M -112 11836 L 11200 1671 C 11733.4 1707.27 11813 1721.9 11876.9 1733.02 C 12005.3 1751.04 12053.5 1756.93 12091.1 1761.27 C 12214.2 1777.53 12251.6 1783.43 12294.1 1790.98 C 12336.4 1799.83 12373 1809.43 12411.9 1816.9 C 12494.6 1834.81 12563.9 1845.85 12606.7 1852.06 C 12723.1 1876.01 12790.6 1895.04 12837.4 1908.38 C 12905.7 1924.69 12974.7 1937.45 13038.2 1950.57 C 13100.7 1967.83 13146.3 1984.54 13192.7 1999.07 C 13271.3 2018.78 13365.7 2041.81 13406.8 2055.04 C 13492.4 2088.1 13565.2 2108.55 13633.2 2126.19 C 13704.3 2151.71 13764.4 2175.87 13826.5 2194.38 C 13893.3 2215.83 13962.1 2247.18 14022.8 2269.81 C 14084.7 2288.88 14145.5 2311.48 14218.6 2346.31 C 14284.8 2369.44 14326 2382.36 14370.3 2402.36 C 14412.8 2425.94 14462.7 2448.78 14503.8 2459.76 C 14563.3 2485.22 14605.3 2509.77 14659.8 2530.13 C 14725.4 2557.9 14795 2599.14 14854.6 2624.29 C 14909.4 2647.17 14958.7 2684.8 15012.4 2705.77 C 15086.7 2737.87 15140.4 2774 15199.5 2800.36 C 15282.9 2849.75 15349.5 2945.04 15412.1 2916.93 C 15465.6 2953.26 15524.8 2979.49 15590.3 3026.7 C 15652.9 3049.22 15727.6 3111.32 15798 3150.99 C 15872.9 3203.9 15961.9 3255.02 16026.7 3303.52 C 16093.7 3348.22 16174.4 3402.18 16241.9 3446.86 C 16307.3 3493.37 16371.9 3542.12 16435.9 3591.78 C 16501.7 3639.12 16565.2 3686.88 16630.5 3737.33 C 16693.7 3788.03 16769.6 3848.81 16832.5 3899.91 C 16894.7 3951.83 16956.6 4004.15 17018.3 4056.66 C 17079.5 4109.73 17128 4152.76 17176.1 4196.14 C 17224 4239.85 17271.6 4283.87 17330.7 4339.33 C 17377.5 4384.16 17423.7 4429.58 17469.6 4475.34 C 17515.9 4521.31 17561.4 4566.86 17607.5 4612.48 C 17652.4 4659.17 17696.8 4706.43 17741 4753.86 C 17784.9 4801.52 17850.3 4873.49 17904.2 4934.01 C 17967.9 5007.42 18030.4 5081.91 18071.7 5131.87 C 18100.7 5167.83 18145.3 5218.15 18189 5266.02 C 18242.4 5326.91 18257.8 5355.18 18288.1 5393.12 C 18325.9 5434.35 18373 5509.43 18433.2 5586.49 C 18492.7 5664.32 18535.2 5730.91 18581 5794.45 C 18643.9 5858.75 18670 5901.97 18719 2158.45 C 18769.9 1888.58 18801 1898.22 18860.9 1730.47 C 18926.8 1929.07 18999.8 2642.27 19071.9 3972.71 C 19141.1 2954.35 19219.5 4638.08 19279.4 1896.65" stroke="#FF0000" stroke-width="0.1" fill=""/>
</svg>