<?xml version="1.0" standalone="no"?>
<!DOCTYPE svg PUBLIC "-//W3C//DTD SVG 20010904//EN"
 "http://www.w3.org/TR/2001/REC-SVG-20010904/DTD/svg10.dtd">
<svg version="1.0" xmlns="http://www.w3.org/2000/svg"
 width="2072.000000pt" height="2373.000000pt" viewBox="0 0 2072.000000 2373.000000"
 preserveAspectRatio="xMidYMid meet">

<g transform="translate(0.000000,2373.000000) scale(0.100000,-0.100000)"
fill="#000000" stroke="none">
<path d="M0 11865 l0 -11865 10360 0 10360 0 0 11865 0 11865 -10360 0 -10360
0 0 -11865z m11200 10194 c348 -14 513 -28 604 -49 44 -10 169 -28 276 -40
116 -13 229 -31 280 -46 47 -13 139 -31 205 -40 66 -8 162 -29 213 -45 51 -17
135 -37 188 -45 52 -8 122 -26 155 -39 33 -14 105 -35 161 -46 55 -11 122 -31
147 -43 25 -13 88 -33 138 -45 51 -11 114 -31 140 -44 27 -13 80 -32 118 -41
39 -10 88 -28 110 -40 22 -13 75 -33 118 -45 42 -12 101 -34 130 -50 28 -16
75 -34 104 -41 28 -6 72 -25 97 -40 25 -16 70 -36 101 -44 30 -8 75 -27 100
-44 25 -16 66 -35 92 -41 25 -7 65 -25 87 -41 23 -17 64 -37 93 -45 29 -9 65
-27 82 -41 16 -13 56 -34 87 -45 32 -10 70 -30 84 -43 14 -12 48 -31 75 -41
28 -9 67 -31 87 -47 21 -16 56 -35 78 -43 22 -8 57 -27 78 -43 20 -17 53 -35
73 -41 20 -7 45 -21 55 -33 11 -12 46 -33 79 -48 33 -16 69 -38 80 -50 11 -12
35 -28 53 -36 19 -7 48 -25 64 -39 17 -15 54 -38 82 -52 28 -14 66 -39 84 -54
18 -16 37 -29 41 -29 5 0 28 -16 52 -36 23 -19 61 -45 83 -56 23 -11 58 -36
79 -54 20 -19 41 -34 46 -34 6 0 30 -17 55 -37 43 -37 92 -73 159 -120 30 -20
51 -37 177 -138 27 -22 75 -60 106 -85 31 -25 81 -67 112 -93 32 -27 79 -67
106 -90 127 -108 331 -296 430 -397 9 -8 30 -30 48 -48 18 -18 40 -40 48 -48
8 -8 29 -28 45 -44 17 -17 33 -33 37 -37 180 -190 313 -338 420 -469 75 -91
108 -129 163 -187 25 -26 45 -52 45 -58 0 -5 17 -28 38 -52 22 -23 51 -63 66
-89 15 -25 33 -49 41 -52 8 -3 25 -27 39 -54 14 -27 32 -52 40 -55 8 -3 24
-24 36 -47 11 -22 36 -58 54 -78 18 -20 43 -55 54 -78 11 -22 28 -47 37 -54 9
-8 29 -39 45 -70 16 -31 36 -62 45 -70 9 -7 26 -32 37 -54 11 -23 31 -54 44
-69 13 -15 33 -49 44 -75 12 -26 32 -58 45 -72 13 -14 31 -45 40 -69 8 -25 27
-60 41 -78 14 -18 35 -55 46 -81 11 -26 32 -62 46 -81 13 -18 33 -56 44 -83
10 -28 34 -71 53 -96 34 -44 45 -91 27 -118 -17 -27 -103 -83 -151 -99 -28 -9
-64 -27 -79 -40 -16 -13 -52 -33 -82 -44 -29 -11 -63 -29 -75 -41 -12 -11 -49
-31 -83 -44 -35 -14 -76 -36 -93 -50 -17 -14 -43 -29 -57 -32 -36 -9 -81 -32
-105 -55 -11 -10 -48 -28 -82 -39 -35 -12 -71 -30 -80 -40 -10 -11 -45 -30
-78 -42 -33 -12 -72 -31 -86 -43 -14 -12 -51 -30 -81 -40 -30 -9 -72 -30 -92
-46 -20 -16 -61 -38 -91 -49 -30 -11 -62 -29 -72 -40 -9 -10 -45 -28 -80 -40
-34 -11 -72 -32 -85 -45 -12 -13 -52 -33 -89 -44 -37 -11 -76 -29 -85 -40 -10
-11 -41 -28 -70 -37 -28 -9 -68 -29 -89 -46 -20 -16 -63 -38 -94 -49 -32 -11
-69 -30 -83 -43 -14 -14 -49 -34 -79 -45 -30 -11 -64 -29 -75 -40 -12 -12 -47
-29 -77 -40 -31 -10 -79 -35 -106 -55 -42 -30 -59 -36 -101 -36 -63 0 -92 23
-117 95 -10 28 -26 59 -36 70 -10 11 -29 45 -43 76 -13 30 -36 69 -50 86 -15
17 -32 46 -38 65 -6 18 -31 59 -55 91 -23 33 -43 65 -43 73 0 7 -13 28 -29 46
-15 18 -38 52 -50 75 -11 23 -34 57 -50 75 -15 18 -36 49 -46 68 -10 19 -26
41 -37 48 -10 7 -27 31 -39 53 -11 22 -35 57 -52 77 -18 20 -41 51 -52 67 -10
17 -27 36 -37 43 -10 7 -25 28 -34 45 -9 18 -29 46 -45 62 -16 17 -51 55 -77
86 -181 213 -212 247 -395 428 -187 185 -275 265 -427 386 -34 28 -76 64 -94
81 -17 17 -46 39 -64 48 -18 9 -38 26 -45 37 -6 11 -28 29 -47 39 -19 10 -48
31 -65 45 -16 14 -45 36 -65 47 -19 12 -52 37 -73 55 -20 18 -43 33 -51 33 -8
0 -27 13 -43 29 -16 16 -54 41 -84 56 -30 15 -69 41 -87 56 -18 16 -39 29 -46
29 -8 0 -33 15 -55 34 -23 19 -63 42 -90 51 -27 9 -57 25 -67 37 -11 11 -48
34 -84 50 -36 16 -74 38 -85 49 -12 10 -47 28 -79 39 -31 10 -71 31 -87 44
-17 14 -49 30 -72 36 -23 6 -67 26 -97 45 -30 18 -75 38 -100 45 -25 6 -72 26
-105 44 -33 18 -82 38 -108 45 -27 6 -72 24 -100 40 -29 16 -83 36 -120 45
-38 9 -90 28 -116 42 -26 13 -81 31 -122 40 -40 8 -103 28 -139 44 -36 15
-106 35 -156 44 -51 9 -132 29 -180 45 -49 16 -141 37 -204 46 -63 8 -149 26
-191 40 -47 14 -126 28 -205 35 -144 13 -404 45 -504 62 -41 7 -228 11 -505
12 -406 0 -450 -2 -565 -22 -69 -12 -226 -31 -350 -42 -164 -15 -247 -27 -306
-45 -45 -14 -143 -34 -218 -45 -80 -12 -160 -30 -194 -44 -31 -13 -104 -32
-162 -41 -58 -10 -128 -28 -157 -41 -28 -13 -91 -33 -140 -44 -48 -11 -108
-31 -133 -44 -25 -14 -76 -32 -115 -42 -38 -9 -89 -28 -113 -41 -24 -14 -76
-34 -115 -45 -40 -10 -94 -32 -122 -48 -27 -15 -70 -33 -95 -40 -25 -6 -66
-25 -91 -41 -25 -16 -70 -36 -100 -45 -30 -9 -72 -29 -94 -45 -22 -16 -57 -34
-79 -40 -21 -6 -61 -26 -88 -45 -28 -18 -67 -38 -87 -44 -21 -5 -48 -21 -61
-35 -13 -14 -48 -34 -79 -46 -31 -11 -67 -31 -81 -44 -14 -13 -47 -33 -75 -45
-27 -12 -61 -32 -75 -45 -14 -13 -47 -33 -73 -46 -27 -12 -51 -28 -54 -36 -3
-8 -29 -26 -57 -40 -28 -14 -66 -39 -84 -54 -18 -16 -48 -35 -67 -43 -18 -8
-38 -23 -44 -35 -6 -11 -33 -32 -60 -47 -28 -14 -52 -32 -55 -39 -2 -7 -26
-25 -53 -40 -56 -33 -71 -45 -363 -302 -161 -142 -387 -365 -525 -518 -44 -49
-99 -108 -122 -132 -24 -24 -43 -48 -43 -53 0 -5 -19 -32 -42 -59 -24 -27 -65
-77 -93 -111 -27 -34 -62 -76 -77 -94 -94 -113 -299 -393 -385 -526 -143 -223
-290 -508 -383 -742 -24 -60 -48 -108 -55 -108 -14 0 -25 -22 -25 -49 0 -9
-15 -48 -34 -87 -18 -39 -41 -103 -50 -143 -9 -40 -27 -94 -40 -120 -13 -26
-32 -87 -42 -136 -9 -50 -28 -115 -41 -145 -13 -30 -33 -109 -44 -175 -11 -66
-31 -154 -45 -195 -17 -48 -33 -133 -45 -240 -11 -91 -29 -203 -40 -250 -25
-107 -36 -229 -48 -555 -9 -238 -21 -1912 -25 -3436 -1 -602 -1 -617 -21 -639
-11 -12 -38 -31 -60 -42 -22 -11 -51 -30 -65 -43 -14 -12 -48 -30 -76 -39 -29
-9 -60 -26 -69 -36 -10 -11 -43 -29 -74 -40 -31 -12 -75 -34 -98 -51 -23 -16
-61 -36 -84 -44 -24 -9 -57 -26 -75 -40 -17 -13 -54 -33 -82 -43 -27 -11 -65
-30 -83 -44 -19 -14 -55 -32 -81 -41 -26 -9 -64 -29 -85 -45 -21 -16 -61 -37
-89 -46 -29 -9 -60 -26 -69 -36 -10 -11 -45 -30 -77 -42 -33 -11 -74 -33 -92
-48 -19 -14 -53 -32 -77 -40 -24 -7 -61 -26 -81 -41 -20 -16 -63 -38 -95 -50
-32 -12 -72 -34 -89 -49 -17 -14 -51 -32 -76 -39 -25 -7 -60 -25 -78 -41 -18
-16 -53 -34 -77 -40 -24 -7 -62 -27 -86 -45 -23 -18 -65 -40 -93 -49 -29 -9
-60 -26 -69 -36 -10 -11 -42 -29 -71 -40 -30 -11 -77 -36 -105 -55 -28 -19
-59 -35 -69 -35 -10 0 -42 -16 -71 -36 -30 -20 -72 -43 -94 -50 -21 -8 -60
-28 -85 -43 -25 -16 -63 -37 -85 -46 -22 -9 -49 -25 -60 -35 -30 -28 -94 -52
-121 -46 -15 4 -27 17 -31 34 -9 32 -9 2549 0 3247 14 1041 18 1228 32 1435 8
118 19 343 25 500 25 686 39 901 65 1013 7 34 21 139 30 232 26 280 36 356 55
419 10 34 28 139 39 234 14 112 30 198 46 244 14 40 32 113 40 165 8 51 21
109 29 130 8 21 19 66 25 99 5 34 23 97 40 140 16 44 38 114 47 157 9 43 29
102 45 131 15 30 35 81 44 116 9 34 27 78 40 99 13 20 33 69 44 110 11 40 31
92 44 115 14 22 32 68 41 101 10 33 28 76 40 95 13 19 31 60 41 90 10 30 32
80 50 110 18 30 39 73 46 95 7 22 27 62 45 88 19 27 38 65 44 85 5 21 25 61
45 91 19 30 42 76 50 102 9 26 23 53 32 61 9 7 30 45 48 84 18 39 38 74 44 78
6 4 26 39 44 79 19 40 41 78 50 86 10 7 26 34 37 58 11 25 32 59 46 76 15 18
35 52 46 77 11 25 26 49 34 53 8 4 26 31 40 60 15 29 39 68 54 87 15 19 37 54
49 77 11 23 27 46 35 50 7 4 21 24 31 43 10 19 38 59 62 88 23 30 43 59 43 66
0 7 14 25 31 42 17 16 38 43 46 59 9 17 30 46 47 66 30 34 78 98 123 163 12
17 35 47 52 66 30 34 68 79 176 210 84 102 143 171 228 263 89 96 533 541 609
609 26 24 58 54 72 68 14 14 31 30 37 35 6 6 29 27 52 48 22 21 47 41 55 46 8
5 33 25 56 45 88 78 142 123 176 146 19 13 41 32 48 42 7 10 31 27 53 38 21
11 46 31 55 45 9 13 25 27 36 30 10 4 41 25 68 48 26 23 68 54 92 70 88 56
112 73 140 100 17 15 44 35 62 43 17 9 45 29 61 45 17 15 47 35 68 44 20 8 54
30 75 48 20 19 51 39 69 46 17 7 40 22 50 33 10 12 46 33 81 49 34 16 65 36
69 44 3 9 31 28 62 41 31 14 65 34 76 44 11 10 45 30 76 43 30 14 61 33 69 43
8 9 40 28 70 41 30 14 64 33 76 44 11 10 48 30 82 43 34 14 73 34 88 45 14 11
49 28 77 37 29 9 73 32 99 49 25 18 66 37 90 43 25 6 61 24 81 40 20 16 62 36
95 46 32 9 74 27 92 41 19 14 60 33 90 42 30 8 78 28 105 43 28 16 81 36 118
46 38 9 83 27 102 40 18 12 68 32 110 43 43 12 96 32 119 46 22 13 81 33 129
44 49 12 107 32 130 45 23 13 74 29 112 36 39 6 97 24 130 40 33 15 108 37
166 49 58 11 127 30 153 42 26 11 109 32 183 45 75 14 147 31 162 38 40 20
105 34 233 51 64 9 136 22 160 31 55 19 182 40 328 54 63 6 185 24 270 40 314
58 1059 79 1770 49z m8762 -8286 c17 -16 18 -236 18 -6640 0 -5918 -2 -6627
-15 -6653 -15 -29 -41 -39 -61 -22 -5 5 -29 17 -52 26 -24 9 -60 29 -80 45
-21 16 -55 34 -77 41 -22 7 -62 27 -90 45 -27 18 -68 39 -90 46 -22 7 -56 24
-75 39 -19 15 -61 37 -92 49 -31 13 -64 31 -73 41 -10 11 -40 27 -69 36 -28 9
-66 28 -84 41 -18 14 -61 36 -95 49 -33 13 -72 35 -86 48 -15 13 -50 31 -79
41 -29 9 -65 27 -81 40 -15 13 -54 34 -87 46 -32 12 -70 32 -84 44 -14 12 -42
28 -63 35 -20 6 -58 26 -85 44 -26 18 -68 40 -93 48 -25 9 -65 30 -89 47 -24
17 -60 36 -81 41 -21 6 -52 22 -69 36 -17 14 -53 35 -80 45 -28 10 -68 32 -91
48 -22 17 -62 37 -89 46 -26 9 -55 24 -65 35 -10 11 -48 31 -85 45 -37 14 -75
34 -85 44 -9 11 -44 29 -78 42 -34 12 -76 35 -93 49 -17 15 -53 32 -79 39 -26
6 -64 25 -84 40 -20 16 -59 36 -87 45 -28 9 -61 28 -74 41 -13 13 -51 34 -85
45 -35 12 -70 29 -80 40 -10 11 -48 31 -85 45 -37 14 -75 34 -84 44 -9 10 -47
30 -85 45 -38 15 -76 35 -86 46 -10 11 -39 26 -66 35 -26 9 -64 29 -85 46 -20
16 -53 33 -74 39 -20 5 -52 21 -71 35 -19 14 -54 34 -79 46 -76 34 -84 39
-119 64 -19 14 -51 30 -72 35 -21 6 -52 22 -68 36 -17 14 -58 36 -93 50 -34
13 -71 33 -83 44 -11 11 -48 29 -80 40 -33 11 -71 31 -85 44 -14 14 -49 32
-78 41 -29 10 -68 30 -88 46 -19 15 -57 35 -83 44 -27 9 -56 24 -66 35 -10 11
-49 31 -87 46 -38 14 -82 37 -97 50 -15 13 -53 32 -83 44 -30 11 -63 29 -73
40 -9 10 -38 26 -64 35 -26 8 -71 31 -101 50 -30 19 -70 40 -89 46 -20 6 -51
23 -70 37 -18 13 -56 33 -83 44 -28 10 -65 30 -84 44 -18 14 -56 34 -85 45
-29 11 -65 31 -81 44 -15 13 -51 31 -80 41 -29 9 -68 30 -86 45 -17 16 -56 35
-86 44 -29 9 -63 27 -76 40 -13 13 -46 32 -74 41 -28 9 -67 28 -86 43 -19 15
-57 35 -85 46 -27 10 -66 30 -85 45 -19 15 -58 35 -86 44 -29 9 -59 25 -69 36
-10 11 -48 31 -85 45 -37 14 -75 34 -85 45 -10 11 -48 31 -85 45 -37 14 -75
34 -84 44 -10 10 -44 28 -76 40 -33 12 -73 33 -89 47 -17 14 -52 32 -78 41
-26 9 -65 29 -86 46 -21 16 -59 35 -84 43 -26 8 -56 23 -67 33 -25 22 -71 46
-107 54 -14 4 -42 19 -62 35 -20 16 -62 39 -95 50 -32 12 -67 31 -77 42 -9 10
-45 28 -80 40 -34 11 -72 32 -85 45 -13 13 -46 32 -74 41 -28 9 -67 29 -86 44
-19 15 -58 35 -87 44 -28 9 -57 24 -64 32 -15 18 -73 49 -111 58 -14 3 -40 18
-57 32 -17 14 -58 36 -93 50 -34 13 -71 33 -82 43 -12 11 -47 29 -79 41 -31
12 -70 33 -87 46 -16 14 -51 32 -77 41 -26 9 -64 28 -83 43 -19 15 -57 34 -83
43 -26 9 -61 27 -77 41 -16 13 -51 32 -77 42 -26 9 -63 28 -81 42 -18 13 -61
35 -94 48 -34 13 -71 33 -83 44 -12 12 -46 30 -76 41 -30 11 -68 31 -85 44
-17 13 -58 35 -92 48 -33 14 -70 34 -81 44 -21 19 -175 83 -200 83 -7 0 -25
-8 -39 -18 -15 -10 -45 -24 -67 -31 -22 -8 -52 -24 -67 -37 -15 -12 -54 -32
-85 -44 -32 -12 -73 -33 -90 -46 -18 -14 -52 -31 -75 -40 -23 -8 -63 -28 -88
-44 -25 -16 -66 -36 -90 -45 -24 -8 -58 -26 -76 -40 -18 -13 -55 -34 -84 -45
-29 -11 -66 -31 -83 -44 -18 -13 -54 -31 -82 -40 -27 -9 -67 -30 -89 -46 -21
-16 -59 -36 -85 -45 -25 -8 -59 -26 -75 -40 -15 -13 -51 -32 -80 -41 -28 -9
-67 -29 -86 -44 -19 -15 -58 -35 -87 -44 -28 -9 -69 -31 -89 -47 -21 -16 -49
-32 -63 -36 -37 -8 -95 -39 -110 -57 -7 -8 -36 -22 -64 -32 -29 -9 -68 -29
-87 -44 -19 -15 -60 -35 -90 -45 -30 -9 -66 -28 -80 -41 -14 -12 -52 -33 -85
-45 -33 -12 -76 -35 -95 -50 -19 -15 -50 -30 -68 -34 -17 -4 -54 -22 -82 -41
-27 -18 -71 -42 -98 -52 -27 -11 -65 -31 -83 -44 -19 -14 -52 -31 -74 -38 -22
-7 -55 -24 -74 -38 -18 -13 -56 -33 -83 -44 -28 -10 -65 -30 -83 -44 -18 -13
-54 -32 -81 -41 -27 -9 -65 -28 -84 -43 -19 -15 -57 -35 -85 -45 -27 -10 -60
-27 -71 -37 -12 -11 -55 -33 -95 -49 -41 -17 -83 -39 -94 -49 -12 -11 -48 -29
-80 -40 -33 -11 -71 -31 -85 -44 -14 -13 -48 -31 -77 -40 -28 -10 -68 -30 -87
-45 -20 -16 -59 -36 -88 -46 -29 -9 -64 -27 -78 -40 -14 -12 -49 -30 -78 -40
-30 -9 -68 -30 -85 -45 -18 -15 -56 -35 -85 -44 -29 -10 -66 -29 -82 -42 -16
-14 -54 -33 -85 -44 -31 -11 -72 -32 -90 -48 -17 -16 -53 -34 -78 -40 -25 -7
-59 -23 -76 -38 -17 -14 -56 -35 -88 -48 -32 -13 -75 -35 -97 -49 -21 -15 -56
-32 -77 -37 -21 -6 -52 -22 -69 -36 -17 -14 -53 -35 -80 -45 -28 -10 -69 -32
-92 -49 -22 -17 -59 -35 -81 -41 -22 -6 -62 -26 -89 -45 -28 -18 -67 -38 -88
-44 -20 -5 -53 -23 -73 -38 -20 -16 -62 -39 -95 -50 -32 -12 -67 -31 -77 -42
-9 -10 -40 -27 -69 -36 -28 -9 -67 -29 -86 -44 -19 -15 -59 -35 -88 -44 -29
-10 -66 -29 -82 -42 -16 -14 -55 -34 -86 -45 -32 -10 -70 -30 -84 -43 -14 -12
-52 -33 -85 -45 -33 -12 -69 -31 -81 -42 -11 -10 -49 -30 -84 -44 -35 -14 -73
-34 -85 -45 -11 -11 -47 -28 -78 -39 -31 -11 -74 -33 -94 -49 -21 -16 -58 -35
-82 -41 -25 -7 -61 -25 -80 -41 -20 -15 -58 -35 -86 -44 -27 -9 -65 -29 -84
-45 -19 -16 -54 -35 -79 -42 -24 -7 -57 -23 -73 -36 -16 -13 -55 -35 -88 -48
-33 -12 -75 -34 -93 -48 -18 -13 -56 -32 -84 -41 -29 -9 -60 -26 -69 -36 -10
-11 -43 -29 -74 -40 -31 -12 -75 -34 -98 -51 -23 -16 -63 -36 -87 -43 -25 -8
-59 -25 -76 -39 -16 -14 -56 -35 -87 -47 -32 -12 -67 -30 -79 -41 -11 -10 -49
-30 -84 -44 -35 -14 -75 -36 -89 -49 -15 -13 -48 -32 -76 -42 -27 -10 -62 -28
-77 -40 -15 -12 -56 -32 -92 -44 -35 -11 -71 -29 -81 -40 -10 -11 -48 -31 -85
-45 -37 -14 -75 -34 -85 -45 -10 -11 -46 -29 -80 -40 -34 -11 -71 -30 -80 -40
-10 -11 -45 -30 -78 -42 -33 -12 -73 -33 -89 -47 -17 -13 -54 -32 -84 -42 -30
-10 -71 -31 -91 -48 -21 -16 -56 -34 -78 -40 -22 -6 -56 -22 -75 -37 -51 -37
-160 -85 -181 -79 -10 4 -23 23 -29 43 -8 26 -10 532 -8 1670 l3 1634 28 24
c15 13 36 24 47 24 10 0 42 16 71 36 30 20 75 43 100 50 25 8 54 23 64 33 9
11 49 32 87 47 38 14 81 36 96 49 15 12 50 30 79 39 28 10 71 30 95 47 24 16
59 33 78 39 19 5 60 25 90 45 30 20 71 40 91 45 20 6 54 22 75 37 22 14 65 36
96 49 31 12 72 33 90 47 18 14 52 30 74 36 23 6 58 24 78 41 21 16 62 36 91
45 30 8 67 27 84 41 16 14 57 34 90 45 33 11 76 33 95 49 20 15 55 32 79 38
24 6 60 25 81 41 20 16 61 38 89 47 29 9 66 28 83 41 17 13 53 31 80 39 27 9
64 28 83 42 18 14 56 34 85 44 28 11 72 33 97 49 25 16 66 35 91 43 25 7 61
25 80 40 19 14 54 33 78 41 24 9 65 29 90 45 25 16 70 38 101 50 31 11 64 29
74 40 10 11 41 27 69 35 28 9 74 31 102 49 28 19 68 39 88 44 21 6 59 24 85
41 26 17 67 37 91 46 25 9 61 27 81 41 20 14 60 34 90 45 29 11 65 31 81 44
15 13 51 31 80 41 29 9 70 30 92 46 22 16 63 35 92 44 29 8 58 22 65 30 16 19
74 49 114 58 16 4 47 21 69 36 21 16 62 37 90 46 28 10 67 30 86 45 19 15 55
33 80 39 25 6 61 24 81 40 19 15 57 35 85 45 27 9 65 27 84 41 20 13 65 35
100 49 35 14 73 34 85 45 11 11 47 29 79 40 31 10 71 31 87 44 17 14 52 32 79
40 28 8 65 26 83 40 19 15 60 35 92 46 33 11 69 30 81 41 12 12 53 32 90 45
37 14 80 36 96 49 16 14 54 32 84 41 30 8 67 27 83 40 16 14 56 34 87 44 32
11 68 29 79 40 12 11 49 31 83 44 33 13 76 35 94 49 18 13 56 32 83 42 28 10
59 26 70 35 26 23 72 45 110 54 17 4 46 20 65 35 20 16 62 37 93 47 32 10 66
26 77 36 23 22 98 57 120 58 9 0 32 14 52 30 21 17 63 40 94 50 31 11 71 31
89 44 17 14 57 32 88 41 32 9 70 27 86 40 15 13 53 33 84 45 30 11 71 34 91
49 20 16 55 33 79 39 24 6 60 25 81 41 21 17 62 37 91 46 30 8 67 27 84 40 16
14 56 35 88 46 32 11 74 30 93 44 19 13 59 33 89 44 30 11 64 29 75 40 12 12
49 30 81 41 32 11 69 30 81 41 12 12 53 32 91 46 37 13 79 35 93 47 14 13 49
31 78 41 29 9 66 28 82 42 17 14 57 33 90 43 33 10 73 29 90 43 16 14 54 33
84 41 30 9 68 28 85 41 16 14 55 34 86 45 31 11 69 30 85 44 16 13 58 34 94
46 35 11 71 29 81 40 10 11 48 31 85 45 37 14 75 34 85 45 22 25 98 50 150 50
54 0 101 -17 145 -51 19 -15 58 -36 86 -47 29 -11 67 -30 85 -44 19 -14 56
-32 82 -41 26 -9 61 -27 77 -41 16 -13 53 -32 82 -42 29 -9 69 -30 88 -45 19
-15 58 -35 87 -44 29 -10 63 -26 75 -37 28 -24 64 -43 99 -51 14 -4 42 -20 63
-36 20 -16 61 -37 89 -47 29 -9 68 -29 87 -44 19 -15 53 -32 75 -39 22 -7 63
-28 91 -47 27 -19 72 -40 98 -48 27 -8 60 -26 75 -39 14 -14 50 -32 79 -42 29
-9 65 -27 81 -40 15 -13 54 -34 87 -46 32 -12 70 -32 84 -45 14 -13 48 -31 75
-40 28 -9 65 -28 83 -41 18 -14 61 -36 94 -49 34 -13 71 -33 82 -43 12 -11 45
-29 75 -40 29 -11 70 -32 91 -46 20 -14 60 -34 88 -44 27 -10 66 -31 85 -45
20 -15 51 -32 70 -37 20 -5 58 -25 85 -44 27 -18 67 -38 89 -44 22 -6 57 -25
78 -41 21 -17 56 -35 79 -42 23 -6 58 -24 79 -40 20 -16 63 -38 94 -49 31 -11
67 -28 78 -39 12 -11 50 -31 85 -45 35 -14 73 -34 85 -45 11 -11 48 -29 80
-40 33 -11 71 -31 85 -44 14 -14 49 -32 78 -41 29 -10 68 -30 88 -46 19 -15
59 -35 87 -45 29 -9 66 -29 84 -45 17 -15 56 -34 86 -43 30 -9 60 -23 68 -32
15 -19 82 -54 102 -54 8 0 38 -16 67 -36 29 -20 73 -43 99 -51 25 -9 61 -27
80 -41 18 -14 56 -33 83 -44 28 -10 65 -30 83 -44 18 -13 54 -32 81 -40 27 -9
65 -29 84 -44 19 -15 58 -34 86 -44 29 -9 60 -26 69 -36 10 -11 43 -29 74 -40
31 -12 74 -34 96 -49 22 -15 63 -36 92 -45 28 -9 57 -24 64 -32 15 -18 73 -49
110 -57 14 -4 42 -20 63 -36 20 -16 61 -37 89 -47 29 -9 68 -29 87 -44 19 -15
58 -35 86 -44 29 -9 59 -25 68 -35 9 -10 34 -26 56 -35 22 -9 58 -23 80 -32
22 -9 47 -25 56 -35 9 -10 40 -25 70 -34 29 -8 66 -27 83 -41 17 -14 58 -36
93 -50 34 -13 71 -33 82 -43 12 -11 45 -28 74 -39 29 -12 68 -31 85 -44 18
-13 59 -34 92 -47 33 -12 69 -31 80 -41 11 -10 47 -28 80 -41 33 -12 69 -29
80 -39 11 -10 57 -36 103 -59 83 -41 139 -52 147 -28 2 6 6 1583 7 3504 l3
3492 21 27 c11 15 37 33 58 40 20 8 51 24 66 38 16 13 52 32 79 41 27 9 55 23
62 31 15 19 74 49 111 58 15 3 42 19 61 35 18 16 56 37 85 46 29 10 68 30 87
45 18 15 60 37 93 48 32 12 67 31 77 42 9 10 40 27 69 36 28 9 67 29 87 45 21
15 60 37 88 48 28 10 65 31 82 45 17 14 43 29 57 32 37 9 83 33 107 54 11 10
46 28 78 40 31 12 70 32 85 45 16 13 52 33 80 43 28 11 65 32 82 46 17 14 48
30 70 36 21 6 60 25 87 44 27 18 63 37 80 40 17 4 51 22 75 40 23 19 66 41 94
50 28 9 62 28 75 42 13 13 47 32 77 40 29 9 68 28 85 43 18 16 56 36 85 46 30
9 68 30 85 45 18 15 55 35 83 44 29 9 59 25 69 36 9 10 42 28 73 41 31 12 73
34 92 48 59 45 75 48 102 24z"/>
</g>
</svg>
