<?xml version="1.0" encoding="UTF-8" standalone="no"?>
<svg
   height="600px"
   version="1.1"
   viewBox="-2083.8650000000025 -2384.8650000000157 24887.730000000014 28499.730000000018"
   width="524px"
   id="svg1"
   sodipodi:docname="smoothed_output9.svg"
   inkscape:version="1.4 (86a8ad7, 2024-10-11)"
   xmlns:inkscape="http://www.inkscape.org/namespaces/inkscape"
   xmlns:sodipodi="http://sodipodi.sourceforge.net/DTD/sodipodi-0.dtd"
   xmlns="http://www.w3.org/2000/svg"
   xmlns:svg="http://www.w3.org/2000/svg">
  <sodipodi:namedview
     id="namedview1"
     pagecolor="#ffffff"
     bordercolor="#000000"
     borderopacity="0.25"
     inkscape:showpageshadow="2"
     inkscape:pageopacity="0.0"
     inkscape:pagecheckerboard="0"
     inkscape:deskcolor="#d1d1d1"
     inkscape:zoom="2"
     inkscape:cx="143.75"
     inkscape:cy="255.75"
     inkscape:window-width="1920"
     inkscape:window-height="1094"
     inkscape:window-x="-11"
     inkscape:window-y="-11"
     inkscape:window-maximized="1"
     inkscape:current-layer="svg1" />
  <defs
     id="defs1" />
  <path
     d="M 5850.3749,6433.3651 C 4529.8684,7631.7912 3759.843,9401.1291 3833.4425,11188.71 c -21.9316,1199.745 13.0596,2407.468 -38.3795,3601.252 -928.0003,524.763 -1885.7586,1027.005 -2837.71054,1496.628 -129.90245,-603.533 -92.43608,-2606.564 -40.94509,-1969.903 28.45066,-1800.601 -41.04455,-3623.924 302.33193,-5399.8698 763.9045,-3238.0753 3395.3398,-5925.8783 6577.2497,-6855.2865 3100.297,-952.9785 6656.018,-220.3273 9111.108,1900.7306 958.241,805.5441 1772.489,1809.2127 2312.48,2934.1204 -502.485,354.2068 -1148.561,539.355 -1675.17,880.0784 -286.649,13.1274 -1187.798,11.7339 -951.374,343.2508 C 15275.905,5511.5079 12124.08,4052.3896 9282.1387,4673.4513 8003.958,4917.7536 6790.5124,5531.7849 5850.3749,6433.3651 Z M 17106.221,18457.004 c 17.483,-2337.069 -16.263,-4689.773 26.096,-7017.395 909.364,-532.139 1884.965,-996.268 2810.341,-1495.6992 105.506,668.9922 -7.401,1417.8202 35.579,2107.2182 -7.319,3734.29 19.759,7472.538 -15.725,11204.614 -663.914,-196.184 -858.996,-491.897 -1130.84,-549.298 -2880.907,-1494.785 -5739.891,-3046.402 -8634.789,-4505.709 -3103.5378,1609.298 -6214.0607,3213.882 -9319.97867,4814.698 -113.66301,-805.685 -42.29956,-2461.787 -44.53262,-1847.996 156.93242,-590.06 -422.67239,-1636.196 499.36569,-1764.615 2963.9721,-1471.266 5902.7674,-3012.429 8881.1146,-4442.763 845.257,362.171 1650.872,859.419 2484.614,1262.694 1462.854,739.373 2905.276,1534.515 4378.091,2246.665 9.233,0.244 19.911,0.346 26.961,-6.894"
     fill="none"
     stroke="#000000"
     stroke-width="23.73"
     id="path1" />
</svg>
