<?xml version="1.0" encoding="UTF-8" standalone="no"?>
<svg
   height="600px"
   version="1.1"
   viewBox="-2083.8650000000025 -2384.8650000000157 24887.730000000014 28499.730000000018"
   width="524px"
   id="svg1"
   sodipodi:docname="smoothed_output8.svg"
   inkscape:version="1.4 (86a8ad7, 2024-10-11)"
   xmlns:inkscape="http://www.inkscape.org/namespaces/inkscape"
   xmlns:sodipodi="http://sodipodi.sourceforge.net/DTD/sodipodi-0.dtd"
   xmlns="http://www.w3.org/2000/svg"
   xmlns:svg="http://www.w3.org/2000/svg">
  <sodipodi:namedview
     id="namedview1"
     pagecolor="#ffffff"
     bordercolor="#000000"
     borderopacity="0.25"
     inkscape:showpageshadow="2"
     inkscape:pageopacity="0.0"
     inkscape:pagecheckerboard="0"
     inkscape:deskcolor="#d1d1d1"
     inkscape:zoom="22.627417"
     inkscape:cx="100.74062"
     inkscape:cy="156.51367"
     inkscape:window-width="1920"
     inkscape:window-height="1094"
     inkscape:window-x="-11"
     inkscape:window-y="-11"
     inkscape:window-maximized="1"
     inkscape:current-layer="svg1" />
  <defs
     id="defs1" />
  <path
     d="m 5850.3749,6433.3651 c -38.9787,37.3947 -77.6277,75.1331 -116.1451,113.0028 -3.8518,3.787 -7.6821,7.5959 -11.4957,11.4213 -34.3223,34.4285 -68.9026,68.6136 -102.471,103.7776 -96.9514,101.5597 -207.3113,193.0379 -285.6714,309.5439 -2.9934,4.4506 -4.2433,9.8713 -6.8372,14.566 -2.6121,4.7277 -5.6981,9.1821 -8.7536,13.6361 -3.0554,4.4539 -6.3137,8.7663 -9.5705,13.0751 -3.2573,4.3096 -6.5699,8.5789 -9.9695,12.7772 -27.1927,33.5815 -55.7445,66.0402 -83.3852,99.2539 -3.4553,4.152 -6.9282,8.2903 -10.3078,12.5041 -97.9877,122.1733 -195.051,245.14 -289.0135,370.4355 -25.9261,34.5715 -51.4415,69.4764 -75.7838,105.1808 -72.9931,107.0637 -144.0687,215.5536 -210.5648,326.7691 -27.7186,46.3597 -52.7252,94.2918 -78.445,141.7895 -2.5721,4.7501 -5.1455,9.501 -7.5872,14.3194 -51.2652,101.1641 -100.9018,203.184 -148.2438,306.2423 -2.2549,4.9087 -4.3232,9.901 -6.4658,14.8597 -2.1425,4.9587 -4.2734,9.9225 -6.3895,14.8925 -2.1161,4.97 -4.2176,9.9462 -6.3069,14.9275 -2.0894,4.9813 -4.1691,9.9668 -6.2291,14.9603 -8.2397,19.9733 -16.3043,40.0185 -24.5227,60.0006 -2.0545,4.9953 -4.0974,9.9955 -6.1966,14.9721 -2.0998,4.9779 -4.2236,9.946 -6.4,14.8909 -2.176,4.9442 -4.3933,9.8705 -6.6567,14.7754 -2.2621,4.9021 -4.5785,9.7791 -6.919,14.6443 -11.2752,23.4377 -22.9794,46.667 -34.3175,70.0743 -11.3353,23.4016 -22.8381,46.7271 -33.7021,70.3512 -2.257,4.9079 -4.5323,9.8128 -6.5387,14.8284 -21.0253,52.5583 -40.0794,105.9301 -57.5566,159.7724 -46.5796,143.4982 -86.3679,289.1452 -125.9381,434.7324 -26.1737,96.2988 -72.3851,284.925 -73.7188,290.1591 -1.3561,5.2284 -2.7354,10.4509 -4.1389,15.6672 -1.4286,5.2098 -2.8868,10.4115 -4.3868,15.6012 -1.555,5.173 -3.1714,10.327 -4.8359,15.4659 -1.6956,5.1288 -3.3962,10.2556 -5.0658,15.3921 -1.6028,5.1578 -3.1253,10.3409 -4.5792,15.5445 -1.399,5.2188 -16.3882,73.8057 -17.3593,79.1194 -0.9518,5.3171 -1.8846,10.6376 -2.7988,15.9613 -0.8959,5.3267 -1.774,10.6565 -2.6344,15.9891 -0.8433,5.3354 -1.6698,10.6735 -2.4797,16.0142 -0.7938,5.3431 -1.5719,10.6886 -2.3345,16.0363 -0.7475,5.3499 -73.7938,474.827 -74.3488,480.199 -0.541,5.374 -1.0683,10.75 -1.5825,16.127 -0.5016,5.378 -0.9909,10.757 -1.4684,16.138 -0.4663,5.382 -0.9217,10.764 -1.3667,16.148 -0.435,5.385 -0.8606,10.77 -1.2771,16.156 -0.408,5.387 -0.8078,10.774 -1.2,16.162 -0.385,5.388 -0.7633,10.777 -1.135,16.166 -0.3655,5.389 -19.4619,561.361 -19.5343,566.762 -0.072,5.401 -0.143,10.802 -0.2138,16.203 -0.07,5.401 -0.1401,10.803 -0.2095,16.204 -0.069,5.401 -0.1376,10.802 -0.2059,16.203 -0.068,5.401 -0.1354,10.803 -0.2026,16.204 -0.067,5.401 -0.1333,10.802 -0.1994,16.203 -0.066,5.402 -0.1312,10.803 -0.1962,16.204 -0.065,5.401 -0.1292,10.803 -0.1933,16.204 -0.064,5.401 -5.47,561.743 -5.5139,567.144 -0.044,5.402 -0.088,10.803 -0.1317,16.204 -0.044,5.402 -0.087,10.803 -0.1307,16.205 -0.043,5.401 -0.087,10.803 -0.1297,16.204 -0.043,5.402 -0.086,10.803 -0.1286,16.205 -0.043,5.401 -0.085,10.803 -0.1276,16.204 -0.042,5.401 -0.084,10.803 -0.1266,16.204 -0.042,5.402 -0.084,10.803 -0.1257,16.205 -0.042,5.401 -0.083,10.803 -0.1248,16.204 -0.041,5.402 -0.083,10.803 -0.1238,16.205 -0.041,5.401 -0.082,10.803 -0.123,16.204 -0.041,5.401 -7.6461,1631.272 -11.7619,2446.907 -0.5997,118.834 -0.5751,237.673 -1.8843,356.501 -0.06,5.401 -1.3264,59.403 -1.5249,64.801 -0.1986,5.398 -0.4102,10.796 -0.6753,16.192 -0.2651,5.395 -0.5491,10.79 -0.9154,16.18 -0.3663,5.39 -0.7374,10.781 -1.2823,16.156 -0.5449,5.375 -1.0028,10.773 -1.9861,16.085 -0.9838,5.315 -1.7934,10.763 -3.9051,15.739 -2.0954,4.938 -5.1049,9.519 -8.5405,13.638 -3.4633,4.152 -7.8197,7.483 -11.9795,10.937 -4.152,3.448 -8.5297,6.62 -12.9273,9.748 -4.4032,3.132 -8.8907,6.151 -13.4653,9.027 -4.5716,2.874 -9.2458,5.586 -13.9613,8.218 -4.7165,2.632 -37.4895,21.44 -42.1515,24.169 -171.6875,100.497 -348.9996,191.075 -524.4472,284.854 -555.0451,296.678 -1113.479,586.975 -1671.0576,878.863 -143.0816,74.902 -294.7757,135.087 -429.674,223.885 -4.5103,2.969 -8.1883,7.06 -12.5557,10.236 -4.3702,3.178 -8.9633,6.049 -13.6174,8.794 -4.65,2.743 -9.4344,5.26 -14.2717,7.657 -4.8415,2.399 -9.758,4.656 -14.7497,6.724 -4.9905,2.068 -10.0503,3.981 -15.1788,5.678 -5.12701,1.697 -10.31322,3.238 -15.56501,4.496 -5.25114,1.258 -10.53962,2.487 -15.91038,3.046 -5.37127,0.559 -10.88239,1.248 -16.19815,0.296 -5.27185,-0.944 -10.46212,-2.949 -14.96459,-5.849 -4.51552,-2.909 -8.40439,-6.883 -11.54701,-11.239 -3.14696,-4.362 -5.29273,-9.433 -7.03394,-14.522 -1.7423,-5.092 -2.53388,-10.476 -3.3385,-15.797 -0.80388,-5.317 -1.20814,-10.693 -1.47969,-16.063 -0.27353,-5.409 -0.23408,-10.832 -0.14929,-16.248 0.0854,-5.456 0.39341,-10.908 0.66287,-16.358 0.27029,-5.467 0.66457,-10.928 0.95679,-16.394 0.29153,-5.453 0.70429,-10.904 0.79462,-16.364 1.33882,-80.929 -3.16258,-161.853 -3.74842,-242.791 -6.17759,-853.478 2.42903,-2555.098 2.46223,-2560.499 0.0335,-5.402 0.0673,-10.803 0.10149,-16.205 0.0345,-5.401 0.0693,-10.803 0.10454,-16.204 0.0356,-5.402 0.0715,-10.803 0.10771,-16.205 0.0366,-5.401 0.0736,-10.803 0.11098,-16.204 0.0377,-5.402 0.0759,-10.803 0.11438,-16.204 0.0389,-5.402 0.0782,-10.803 0.11789,-16.205 0.0401,-5.401 20.10669,-1355.651 20.24402,-1361.051 0.13912,-5.4 0.2801,-10.8 0.423,-16.2 0.14489,-5.399 0.29184,-10.799 0.4409,-16.198 0.15125,-5.4 0.30474,-10.799 0.46055,-16.199 0.15819,-5.399 0.31882,-10.798 0.48196,-16.197 0.16571,-5.399 0.33406,-10.798 0.50511,-16.197 0.17382,-5.399 13.41882,-269.731 13.76339,-275.122 0.3412,-5.39 0.67842,-10.782 1.01146,-16.173 0.32911,-5.392 0.65457,-10.783 0.97666,-16.175 0.319,-5.393 0.63519,-10.785 0.94886,-16.178 0.31142,-5.392 0.62078,-10.785 0.92814,-16.178 0.3054,-5.393 0.60975,-10.786 0.91046,-16.179 0.30071,-5.393 0.62742,-10.785 0.89381,-16.18 15.71717,-318.305 26.39343,-636.842 41.56656,-955.173 0.2572,-5.395 3.0068,-59.346 3.4557,-64.729 17.4926,-209.781 48.6577,-418.21 70.1955,-627.6152 0.5527,-5.3733 1.0072,-10.7562 1.5146,-16.134 2.5371,-26.889 5.0479,-53.7806 7.6494,-80.6634 0.5203,-5.3765 1.0564,-10.7515 1.5919,-16.1265 0.5355,-5.375 1.0752,-10.7496 1.6209,-16.1236 0.5457,-5.374 0.9476,-10.765 1.6532,-16.1203 21.148,-160.4976 54.2432,-319.2291 77.2893,-479.4652 0.769,-5.3466 1.3405,-10.7197 2.0343,-16.0766 0.6938,-5.3567 1.404,-10.7114 2.1287,-16.064 0.7247,-5.3527 1.3952,-10.7135 2.2192,-16.0518 6.5913,-42.699 13.4851,-85.3705 21.7922,-127.7691 1.0387,-5.3012 2.2885,-10.5591 3.5053,-15.8223 1.2168,-5.2634 2.4592,-10.5216 3.7951,-15.756 1.3356,-5.2333 2.7207,-10.4552 4.2186,-15.6444 1.498,-5.1896 3.1184,-10.3438 4.7678,-15.4873 1.6495,-5.144 3.6076,-10.1896 5.1282,-15.3731 53.1385,-181.1414 137.6652,-543.785 139.4093,-548.8973 1.7275,-5.1179 3.5523,-10.2051 5.1337,-15.37 12.6455,-41.2993 23.8086,-83.0453 34.7987,-124.8156 1.3743,-5.2235 2.5448,-10.499 3.8935,-15.7291 1.3979,-5.2172 140.6377,-355.8137 142.7578,-360.7816 2.0688,-4.9897 4.0874,-10.0001 6.0573,-15.0301 1.9223,-5.0485 3.7985,-10.1144 5.6297,-15.1967 1.7874,-5.0976 3.5298,-10.2104 5.2243,-15.3389 1.6434,-5.145 3.2322,-10.3075 4.7665,-15.486 1.5346,-5.1797 2.9219,-10.4021 4.4396,-15.5867 1.5174,-5.1837 2.8246,-10.4396 4.6654,-15.5174 18.379,-50.6985 43.7092,-98.6333 63.5224,-148.7887 1.9847,-5.0242 3.7653,-10.1276 5.5408,-15.2295 1.7753,-5.1013 3.4944,-10.2232 5.1108,-15.3771 1.6164,-5.1541 2.986,-10.3831 4.5862,-15.5423 1.6,-5.1587 3.2586,-10.3002 5.0134,-15.4084 1.755,-5.1088 3.6111,-10.1831 5.5147,-15.2384 1.9034,-5.0549 3.7404,-10.1412 5.9055,-15.0897 90.7133,-207.3353 189.0219,-411.6038 296.4241,-610.8062 2.5633,-4.7542 5.5977,-9.2399 8.2911,-13.9215 2.6938,-4.6823 5.3047,-9.4125 7.8689,-14.1671 2.564,-4.7542 5.0085,-9.5719 7.5143,-14.357 29.9058,-57.1074 60.5199,-113.8489 89.7558,-171.3021 2.4496,-4.8139 4.8223,-9.6668 7.1762,-14.5282 2.3541,-4.8618 4.6313,-9.7604 6.9476,-14.6403 2.3162,-4.8799 4.594,-9.7782 6.9499,-14.6391 2.3557,-4.8604 4.5612,-9.8024 7.1843,-14.5239 143.6337,-258.5346 437.3122,-706.5367 523.4133,-828.5594 86.101,-122.0227 267.0264,-369.8783 314.019,-435.5605 46.9926,-65.6822 6.1486,-8.8821 9.2728,-13.2886 3.1242,-4.4065 6.2678,-8.8013 9.4721,-13.1498 3.2043,-4.3485 47.4373,-58.8602 50.9865,-62.9323 3.5492,-4.0721 7.1041,-8.139 10.6396,-12.2228 3.5355,-4.0838 -31.3292,37.1739 10.5731,-12.2799 41.9023,-49.4538 158.5129,-191.3479 238.6769,-286.2602 3.4855,-4.1267 7.017,-8.2143 10.5349,-12.3134 3.5179,-4.0991 7.0417,-8.1932 10.5723,-12.2813 3.5306,-4.0881 7.0675,-8.1708 10.6113,-12.2475 3.5438,-4.0767 7.0941,-8.1477 10.6515,-12.2125 3.5574,-4.0647 7.1215,-8.1236 10.693,-12.176 3.5715,-4.0524 7.1129,-8.1318 10.736,-12.1381 39.8511,-44.0655 80.1572,-87.7259 121.0058,-130.8683 3.7139,-3.9224 7.5167,-7.7597 11.2801,-11.6346 3.7634,-3.8749 7.5307,-7.746 11.3002,-11.6149 3.7695,-3.8689 7.5424,-7.7346 11.3169,-11.5987 3.7745,-3.8641 7.5515,-7.7255 11.3299,-11.5858 3.7783,-3.8602 7.5438,-7.7332 11.3402,-11.5757 113.8909,-115.2747 339.2947,-340.5746 343.1354,-344.3728 3.8414,-3.7975 7.6837,-7.5941 11.5267,-11.3899 3.8439,-3.7951 7.6885,-7.5893 11.534,-11.3827 3.8463,-3.7925 7.6935,-7.5841 11.5416,-11.3749 3.849,-3.7898 7.699,-7.5786 11.5499,-11.3665 3.8519,-3.7869 7.7048,-7.5728 11.5588,-11.3576 3.855,-3.7838 489.8772,-440.1316 494.0517,-443.5594 4.1858,-3.414 8.3834,-6.8133 12.5936,-10.1971 4.2235,-3.3673 8.4609,-6.7172 12.7132,-10.0486 4.2693,-3.3097 8.558,-6.5939 12.8686,-9.8489 4.3352,-3.222 8.6973,-6.4072 13.0889,-9.5519 4.4236,-3.1005 8.8786,-6.1571 13.3005,-9.2596 4.3217,-3.2406 8.5937,-6.5476 12.8253,-9.9051 4.1788,-3.4222 8.2939,-6.9208 12.3383,-10.501 3.9673,-3.6664 7.8497,-7.4245 11.5827,-11.3265 3.4581,-4.148 6.8257,-8.3728 10.5623,-12.2631 4.0602,-3.5746 291.7244,-220.0636 296.2031,-223.0822 4.5054,-2.9789 9.0336,-5.9233 13.5788,-8.8421 4.5565,-2.9019 9.1184,-5.7957 13.6797,-8.6902 4.5564,-2.9018 63.0425,-41.7591 67.4517,-44.8807 4.3836,-3.1565 8.737,-6.353 13.0559,-9.5949 4.2799,-3.2925 8.5166,-6.6408 12.7055,-10.0502 4.1368,-3.4757 8.2158,-7.0232 12.2241,-10.6493 3.9341,-3.7008 357.7866,-220.0511 526.217,-345.0642 17.1885,-12.7578 31.7354,-28.9055 49.2561,-41.2031 127.7826,-89.6894 270.9864,-155.1538 404.7165,-235.7072 4.6265,-2.7868 9.09,-5.8417 13.7544,-8.5645 4.665,-2.7231 9.4331,-5.2687 14.2226,-7.7663 4.7895,-2.4977 9.6351,-4.8886 14.5093,-7.2168 4.8736,-2.3279 9.8354,-4.4668 14.7302,-6.7498 78.1365,-36.4448 156.4957,-72.466 233.6658,-110.9149 4.8348,-2.4089 9.6114,-4.9347 14.3642,-7.5017 4.7526,-2.5669 9.4738,-5.1932 14.1491,-7.8983 4.6755,-2.7052 9.1333,-5.7891 13.8997,-8.3308 113.8589,-60.715 235.2956,-106.2364 350.2618,-164.8277 24.0052,-12.234 46.4008,-27.575 70.8242,-38.9511 87.9547,-40.9683 181.818,-67.9315 271.4913,-104.9871 39.8161,-16.4532 78.627,-35.255 118.2884,-52.0776 4.9728,-2.1092 9.9725,-4.1565 15.0028,-6.1247 5.0306,-1.9684 10.095,-3.8511 15.1766,-5.6837 5.0807,-1.8323 10.1973,-3.5638 15.3081,-5.3104 214.1191,-73.1737 432.6573,-134.0668 643.363,-216.5562 5.0297,-1.9691 9.8053,-4.5397 14.7853,-6.6313 4.9799,-2.0916 10.024,-4.0301 15.0858,-5.9147 5.0626,-1.8848 10.1689,-3.6518 15.2831,-5.3918 5.1139,-1.7399 10.252,-3.4088 15.3993,-5.0473 5.1467,-1.6383 10.3094,-3.2266 15.4815,-4.7828 5.1723,-1.5563 10.3579,-3.0685 15.5508,-4.5545 5.1934,-1.4861 10.3966,-2.9382 15.6076,-4.3615 5.2112,-1.4234 10.4298,-2.8199 15.6583,-4.1784 5.2282,-1.3584 10.4645,-2.6866 15.7111,-3.9722 5.2462,-1.2855 10.5237,-2.4417 15.7666,-3.7409 183.1837,-45.3921 366.7299,-89.7086 548.17,-141.6335 5.1934,-1.4863 10.2766,-3.3385 15.4597,-4.8606 5.182,-1.5218 10.3986,-2.9268 15.6299,-4.2696 5.2326,-1.3431 10.4915,-2.5833 15.7579,-3.7869 5.2664,-1.2036 10.5495,-2.3346 15.8386,-3.4345 5.2882,-1.0998 10.5912,-2.1275 15.8921,-3.1644 116.4842,-22.7854 233.2532,-44.106 349.6813,-67.176 5.298,-1.0498 10.5768,-2.1948 15.8753,-3.2418 5.2985,-1.047 10.6044,-2.0566 15.915,-3.04 5.311,-0.9834 10.6282,-1.9332 15.9493,-2.8602 5.3216,-0.9271 10.64,-1.8771 15.9783,-2.7022 160.1074,-24.7456 321.214,-42.7065 481.3272,-67.4145 5.3393,-0.8239 10.6511,-1.818 15.982,-2.6951 5.3302,-0.877 10.6641,-1.7318 16.0009,-2.5673 5.3364,-0.8354 10.6762,-1.6496 16.0187,-2.4454 5.3423,-0.7958 10.6876,-1.5713 16.0353,-2.3294 5.3477,-0.7581 10.6982,-1.4968 16.0508,-2.219 5.3527,-0.7223 10.6951,-1.5348 16.0651,-2.1145 118.1305,-12.7521 236.6555,-21.7575 355.1877,-29.9767 5.3886,-0.3737 10.7869,-0.5912 16.1807,-0.8789 5.3939,-0.2878 10.7866,-0.6019 16.1826,-0.8476 80.9413,-3.6852 161.9113,-6.7431 242.8923,-9.3968 5.399,-0.1769 10.799,-0.2935 16.199,-0.435 5.4,-0.1416 10.8,-0.2796 16.2,-0.4143 5.4,-0.1347 10.801,-0.2659 16.201,-0.3938 5.4,-0.1278 10.799,-0.3474 16.201,-0.3733 354.635,-1.7005 1058.425,14.0671 1063.822,14.3068 5.396,0.2413 10.792,0.4841 16.188,0.7287 5.397,0.2462 10.793,0.4943 16.189,0.7442 5.395,0.2518 590.097,62.8091 595.444,63.5776 5.348,0.763 10.696,1.5206 16.045,2.2726 5.35,0.7464 10.7,1.4873 16.052,2.2225 5.352,0.7297 10.705,1.4537 16.059,2.172 5.354,0.7126 10.709,1.4195 16.065,2.1206 5.357,0.6954 10.714,1.3849 16.072,2.0687 5.359,0.6779 10.719,1.3499 16.079,2.016 5.362,0.6602 457.314,78.8617 462.627,79.836 5.315,0.962 10.633,1.9116 15.952,2.8485 5.322,0.9242 10.647,1.8353 15.973,2.7333 5.329,0.8847 10.66,1.7559 15.993,2.6126 5.336,0.8409 10.674,1.6646 16.016,2.4698 5.344,0.7853 10.691,1.5493 16.042,2.2908 5.354,0.7191 10.709,1.428 16.063,2.1442 5.35,0.7409 902.138,236.7665 907.27,238.451 5.142,1.6529 10.294,3.2762 15.455,4.8719 5.168,1.5702 10.344,3.1169 15.527,4.642 5.188,1.5054 10.382,2.9901 15.583,4.4516 5.207,1.4356 10.422,2.8428 15.645,4.2189 5.231,1.3425 10.472,2.6487 15.723,3.9161 5.26,1.2275 10.527,2.4324 15.791,3.6443 5.256,1.2467 10.501,2.5357 15.737,3.8626 5.228,1.36 10.447,2.7508 15.659,4.1716 5.203,1.4502 10.399,2.9288 15.586,4.4352 5.18,1.5335 10.351,3.0943 15.513,4.6843 5.153,1.6207 10.295,3.274 15.426,4.9616 5.12,1.7235 353.342,132.7714 530.392,198.1359 40.442,14.9307 81.015,29.5045 121.498,44.3249 5.073,1.8572 10.177,3.6341 15.213,5.5887 5.036,1.9546 10.036,4.0046 15,6.1372 4.962,2.1319 9.861,4.4076 14.772,6.6541 146.801,67.1503 292.938,135.7435 439.231,203.9928 48.743,22.7395 98.034,44.3532 146.11,68.47 202.003,101.3324 407.593,197.8346 597.667,320.0845 4.539,2.9194 8.771,6.3115 12.875,9.8167 4.103,3.5047 7.457,7.8562 11.707,11.1806 12.752,9.9735 26.924,18.0388 41.016,26.0071 14.104,7.975 29.081,14.3007 43.464,21.7601 4.795,2.487 9.556,5.0412 14.278,7.6656 4.721,2.6241 9.455,5.2324 14.046,8.0782 150.968,93.5875 296.535,195.6393 443.39,295.5566 4.466,3.0384 8.836,6.2161 13.31,9.2419 4.474,3.0257 8.981,6.0044 13.533,8.911 4.554,2.9073 9.11,5.8155 13.782,8.5289 4.67,2.7123 9.66,4.8663 14.231,7.7421 41.045,25.8243 75.566,61.6098 117.983,85.1125 4.696,2.602 10.259,3.4054 14.915,6.0788 168.565,96.7914 309.371,235.4387 462.285,355.4382 4.25,3.3348 8.437,6.7475 12.649,10.1303 4.211,3.3825 8.419,6.7688 12.619,10.1653 4.2,3.3966 8.394,6.8001 12.58,10.2142 4.186,3.4142 8.363,6.8393 12.535,10.2707 4.172,3.4313 8.335,6.8727 12.496,10.3175 4.161,3.4448 8.315,6.8974 12.468,10.3515 4.153,3.4541 8.302,6.9129 12.45,10.3729 4.148,3.46 8.294,6.9226 12.438,10.3871 4.144,3.4645 8.286,6.9313 12.427,10.4001 4.141,3.4688 8.28,6.9395 12.417,10.4127 4.137,3.4732 8.304,6.911 12.405,10.4266 102.515,87.8833 204.712,176.1734 304.961,266.6329 40.103,36.1869 79.248,73.4224 118.593,110.4324 3.934,3.701 7.836,7.4368 11.747,11.1624 3.911,3.7257 7.852,7.4213 11.72,11.1916 96.698,94.2498 192.956,188.9854 287.183,285.705 3.769,3.869 7.419,7.8522 11.125,11.7822 3.706,3.9301 7.412,7.8597 11.109,11.7979 18.485,19.6909 37.007,39.3478 55.366,59.1563 40.39,43.5785 80.56,87.3616 120.531,131.3245 3.634,3.9967 7.234,8.0241 10.845,12.0411 3.611,4.017 7.219,8.0372 10.823,12.061 3.604,4.0237 7.261,8.0009 10.8,12.0815 144.873,167.0279 294.858,330.3142 427.072,507.5313 266.705,357.4855 504.966,735.9198 735.991,1117.4366 58.614,96.795 110.475,197.5256 164.699,296.8461 2.59,4.7435 5.341,9.4073 7.672,14.2831 2.328,4.8705 4.48,9.8378 6.292,14.9232 1.811,5.0845 3.418,10.262 4.559,15.5375 1.143,5.2857 2.042,10.6607 2.274,16.0636 0.231,5.3798 0.118,10.8391 -0.882,16.1302 -1.002,5.3001 -2.616,10.5647 -5.075,15.3653 -2.458,4.7983 -5.959,9.0248 -9.501,13.0894 -3.549,4.0725 -7.657,7.6299 -11.69,11.2236 -4.032,3.5928 -8.245,6.9814 -12.489,10.3212 -4.246,3.3409 -8.594,6.5514 -12.973,9.7149 -4.379,3.1635 -8.706,6.4195 -13.299,9.2634 -27.508,17.031 -55.632,33.343 -85.162,46.5613 -4.931,2.2073 -10.207,3.5459 -15.272,5.4267 -5.062,1.88 -10.185,3.6304 -15.106,5.8544 -739.442,334.1786 -1452.713,724.9364 -2160.165,1122.3807 -32.924,18.4968 -63.753,40.6059 -96.908,58.6867 -4.74,2.5849 -9.55,5.0813 -14.556,7.1035 -5.005,2.0219 -10.158,3.7235 -15.403,4.9992 -5.247,1.276 -10.616,2.0421 -15.983,2.6339 -5.369,0.5921 -10.779,0.7704 -16.179,0.9124 -5.396,0.1419 -10.801,0.1638 -16.194,-0.061 -5.401,-0.2251 -10.808,-0.5664 -16.165,-1.2887 -5.355,-0.7221 -10.71,-1.6157 -15.923,-3.0378 -5.205,-1.4199 -10.349,-3.1757 -15.236,-5.4605 -4.893,-2.2873 -9.611,-5.017 -13.976,-8.1978 -4.366,-3.1819 -8.38,-6.8681 -12.089,-10.797 -3.704,-3.9241 -6.989,-8.245 -10.07,-12.6755 -3.085,-4.4375 -19.543,-38.4556 -21.484,-43.4945 -1.942,-5.0422 -3.691,-10.1574 -5.646,-15.1946 -1.954,-5.0346 -3.936,-10.0603 -6.078,-15.0179 -2.142,-4.9591 -4.393,-9.8734 -6.77,-14.7243 -2.376,-4.8495 -4.83,-9.6663 -7.486,-14.3683 -2.657,-4.7024 -5.692,-9.1814 -8.444,-13.8288 -54.866,-92.6591 -105.001,-188.0919 -160.811,-280.1856 -2.8,-4.6196 -5.757,-9.1426 -8.726,-13.6552 -2.969,-4.512 -6.092,-8.9208 -9.085,-13.4164 -71.585,-107.5129 -141.952,-215.8348 -212.232,-324.2053 -2.939,-4.532 -5.683,-9.1937 -8.759,-13.6337 -82.669,-119.3176 -169.708,-235.6984 -260.334,-349.0912 -107.791,-134.8703 -221.413,-265.0694 -336.739,-393.5563 -3.608,-4.0198 -7.347,-7.9215 -11.107,-11.7993 -82.722,-85.3086 -167.323,-168.7824 -251.933,-252.2191 -3.846,-3.7928 -7.746,-7.531 -11.624,-11.291 -3.878,-3.76 -7.759,-7.5168 -11.645,-11.2691 -3.886,-3.7523 -7.775,-7.5008 -11.669,-11.2446 -3.894,-3.7436 -7.791,-7.4834 -11.694,-11.2177 -3.903,-3.7344 -7.81,-7.4641 -11.723,-11.1884 -3.912,-3.7241 -7.829,-7.4435 -11.752,-11.1566 -3.923,-3.7132 -7.851,-7.421 -11.785,-11.1223 -3.934,-3.7014 -7.874,-7.397 -11.82,-11.0857 -3.946,-3.6886 -7.897,-7.3713 -11.856,-11.0464 -3.959,-3.6753 -7.848,-7.4277 -11.896,-11.0048 -149.436,-132.0572 -297.655,-266.2285 -457.208,-385.8653 -4.321,-3.24 -8.893,-6.1404 -13.501,-8.9578 -4.609,-2.8178 -9.485,-5.1777 -14.129,-7.9361 -4.644,-2.7581 -9.211,-5.6466 -13.728,-8.6086 -4.516,-2.9618 -8.936,-6.069 -13.366,-9.159 -74.962,-52.2901 -146.012,-110.384 -223.571,-158.7377 -4.574,-2.8517 -9.688,-4.7845 -14.21,-7.7177 -4.53,-2.9383 -8.732,-6.3689 -12.863,-9.8452 -4.132,-3.477 -7.877,-7.3919 -11.902,-10.9927 -4.024,-3.5997 -8.037,-7.2192 -12.241,-10.606 -4.207,-3.3889 -8.581,-6.5678 -12.977,-9.7078 -4.395,-3.1393 -8.872,-6.1628 -13.388,-9.1256 -4.517,-2.9635 -9.099,-5.8273 -13.704,-8.6506 -183.303,-112.3684 -368.858,-221.0338 -554.293,-329.8494 -4.659,-2.734 -9.278,-5.5417 -14.027,-8.1161 -4.748,-2.5737 -9.586,-4.9801 -14.452,-7.3225 -4.868,-2.3432 -9.787,-4.5803 -14.743,-6.7313 -4.954,-2.1504 -9.941,-4.2326 -14.982,-6.1707 -5.042,-1.9383 -10.28,-3.3601 -15.259,-5.4551 -114.126,-48.0236 -219.439,-115.5546 -333.946,-162.6618 -4.994,-2.0543 -10.185,-3.5974 -15.339,-5.2079 -5.156,-1.6112 -10.484,-2.6681 -15.582,-4.454 -25.469,-8.9219 -50.245,-19.7997 -74.71,-31.1892 -4.897,-2.2797 -9.614,-4.9281 -14.404,-7.4245 -4.79,-2.4964 -9.523,-5.1033 -14.337,-7.5537 -4.813,-2.45 -9.59,-4.9907 -14.542,-7.146 -138.388,-60.2276 -280.578,-111.5636 -423.077,-161.2895 -40.732,-14.2138 -81.75,-27.7611 -123.362,-39.1448 -5.21,-1.4252 -10.545,-2.3491 -15.789,-3.6436 -5.244,-1.2946 -10.462,-2.6968 -15.672,-4.1227 -5.21,-1.4259 -10.39,-2.958 -15.587,-4.4324 -140.086,-39.747 -280.721,-77.5973 -420.328,-118.9951 -5.178,-1.5356 -10.302,-3.251 -15.477,-4.7988 -5.175,-1.5479 -10.369,-3.032 -15.571,-4.4879 -5.202,-1.456 -10.417,-2.8655 -15.639,-4.2475 -5.221,-1.3819 -10.453,-2.7272 -15.691,-4.0441 -5.239,-1.317 -10.457,-2.7266 -15.739,-3.8575 -63.358,-13.5648 -127.48,-23.2745 -191.188,-35.082 -5.311,-0.9844 -10.624,-1.961 -15.929,-2.9816 -5.304,-1.0206 -10.607,-2.0499 -15.897,-3.1419 -10.58,-2.184 -21.144,-4.4465 -31.683,-6.8197 -5.27,-1.1867 -10.48,-2.6418 -15.775,-3.7096 -110.948,-22.3738 -222.687,-41.0697 -334.819,-56.4481 -5.352,-0.734 -10.744,-1.1332 -16.115,-1.7076 -5.371,-0.5744 -10.741,-1.1544 -16.111,-1.739 -5.37,-0.5846 -10.739,-1.1746 -16.108,-1.7688 -5.369,-0.5942 -10.738,-1.1824 -16.105,-1.7966 -37.566,-4.2995 -75.119,-8.7149 -112.661,-13.2206 -5.363,-0.6437 -10.723,-1.3116 -16.084,-1.9733 -5.361,-0.6617 -10.722,-1.3271 -16.082,-1.9969 -5.36,-0.6697 -10.719,-1.3434 -16.078,-2.0215 -5.359,-0.6781 -10.706,-1.4558 -16.075,-2.0473 -123.325,-13.5862 -246.738,-27.5097 -370.613,-34.4804 -5.393,-0.3035 -10.801,-0.2169 -16.202,-0.3185 -5.401,-0.1016 -10.801,-0.1984 -16.202,-0.2913 -5.401,-0.093 -10.802,-0.1814 -16.203,-0.2664 -5.401,-0.085 -10.802,-0.1659 -16.203,-0.2437 -5.401,-0.078 -10.802,-0.1519 -16.203,-0.2233 -5.401,-0.071 -10.803,-0.1393 -16.204,-0.205 -5.401,-0.066 -10.802,-0.1513 -16.204,-0.1891 -140.437,-0.9824 -415.919,-1.0109 -421.321,-0.9779 -5.401,0.035 -10.803,0.072 -16.204,0.1108 -5.402,0.041 -10.803,0.084 -16.204,0.1296 -5.402,0.048 -10.803,0.098 -16.205,0.1503 -5.401,0.055 -10.802,0.1129 -16.204,0.1733 -5.401,0.064 -10.802,0.1307 -16.203,0.2019 -5.401,0.076 -10.802,0.1564 -16.203,0.2426 -5.401,0.092 -10.802,0.1907 -16.202,0.2961 -5.4,0.1128 -10.801,0.2335 -16.201,0.3624 -5.399,0.1377 -10.799,0.2847 -16.198,0.4414 -5.399,0.1669 -10.798,0.3445 -16.197,0.5332 -5.398,0.2004 -10.796,0.4128 -16.194,0.6379 -5.397,0.2388 -461.075,54.9316 -466.4506,55.4608 -5.3761,0.524 -10.7527,1.043 -16.1298,1.5567 -5.3776,0.509 -10.7556,1.014 -16.134,1.5157 -5.3785,0.499 -10.7573,0.9962 -16.1361,1.4923 -5.379,0.4956 -10.7578,0.9916 -16.1366,1.4887 -5.3786,0.4988 -10.757,1.0001 -16.135,1.5047 -5.3777,0.5085 -282.4196,44.0196 -287.6098,45.5167 -5.1998,1.4616 -10.4122,2.8774 -15.636,4.2504 -5.2341,1.3345 -10.4771,2.6348 -15.7276,3.9055 -5.2568,1.2453 -73.914,15.9645 -79.2148,17.0037 -5.3031,1.0281 -233.6166,43.3291 -238.8528,44.6552 -5.2288,1.3569 -10.4497,2.746 -15.6613,4.1713 -5.1986,1.4714 -87.2131,28.5992 -92.4219,30.0294 -5.2171,1.3992 -231.6371,52.5864 -236.7851,54.2254 -5.1259,1.7044 -10.2245,3.4867 -15.2904,5.3596 -5.0281,1.9745 -10.0135,4.0552 -14.9611,6.2236 -4.9558,2.1476 -71.3439,24.9578 -76.5213,26.4993 -5.1843,1.5179 -348.5832,113.4918 -353.7049,115.2082 -5.1078,1.7573 -10.2013,3.5556 -15.2798,5.3956 -5.0628,1.8827 -10.1093,3.8088 -15.1388,5.7792 -5.0118,2.0155 -98.6137,43.9039 -103.6854,45.7633 -5.0851,1.8231 -296.7109,114.5044 -301.6873,116.6043 -4.9468,2.1694 -9.8649,4.4042 -14.7549,6.7 -4.8629,2.3528 -9.6977,4.7621 -14.5016,7.2315 -4.7704,2.5334 -142.0361,64.9047 -147.0759,66.8496 -5.0082,2.0281 -296.2445,154.2177 -301.14,156.5035 -4.9305,2.2068 -9.9023,4.3158 -14.9218,6.3085 -5.0744,1.8533 -10.2278,3.473 -15.4238,4.9522 -5.1066,1.7496 -10.1113,3.7849 -15.0311,6.0248 -4.8428,2.3957 -9.6033,4.9459 -14.2752,7.6533 -4.577,2.867 -9.0511,5.8963 -13.4095,9.0906 -4.2274,3.3644 -8.2485,6.9662 -12.0716,10.7857 -3.8968,3.7403 -283.7437,154.9181 -417.9455,244.6275 -4.4863,2.9989 -9.0689,5.9814 -12.8981,9.7838 -3.8111,3.7844 -6.0965,8.9053 -9.8276,12.7686 -3.75,3.8829 -8.152,7.0944 -12.4818,10.3182 -4.3322,3.2256 -8.8948,6.1356 -13.4709,9.0047 -4.576,2.869 -9.4116,5.311 -13.9736,8.2023 -99.7038,63.1893 -194.8744,133.263 -292.4771,199.6516 -4.4641,3.0364 -9.0074,5.9585 -13.4074,9.0871 -48.1392,34.2299 -95.4938,69.5856 -142.0748,105.9075 -4.26,3.3217 -8.4394,6.7478 -12.5606,10.2402 -131.8596,111.742 -261.167,226.5068 -389.1308,342.6899 -3.9992,3.631 -7.8972,7.372 -11.8311,11.0737 -15.7356,14.8066 -31.4973,29.5865 -47.089,44.5446 z M 17106.221,18457.004 c 0.438,-112.838 0.855,-225.676 1.251,-338.515 0.377,-112.838 0.733,-225.676 1.071,-338.514 l 7.037,-6093.297 0.146,-225.673 c 1.832,-2.385 3.677,-4.761 5.53,-7.133 1.857,-2.369 3.712,-4.738 5.562,-7.111 1.84,-2.38 3.67,-4.766 5.499,-7.152 1.842,-2.379 3.707,-4.743 5.607,-7.081 1.943,-2.301 3.939,-4.552 5.999,-6.741 2.131,-2.116 4.335,-4.155 6.604,-6.124 2.327,-1.906 4.703,-3.756 7.12,-5.555 2.452,-1.756 4.929,-3.475 7.427,-5.16 2.522,-1.645 5.07,-3.245 7.648,-4.792 2.609,-1.49 5.253,-2.914 7.935,-4.267 2.722,-1.277 5.479,-2.486 8.26,-3.644 2.796,-1.125 5.596,-2.235 8.39,-3.348 2.782,-1.135 5.547,-2.311 8.295,-3.532 2.733,-1.258 5.452,-2.55 8.159,-3.868 2.696,-1.338 5.383,-2.695 8.058,-4.073 2.663,-1.399 5.313,-2.822 7.95,-4.27 2.621,-1.475 5.227,-2.979 7.816,-4.512 2.57,-1.566 5.119,-3.167 7.642,-4.808 2.493,-1.683 4.954,-3.413 7.379,-5.192 2.384,-1.833 4.727,-3.72 7.045,-5.639 2.32,-1.915 4.672,-3.789 7.082,-5.586 2.479,-1.705 5.004,-3.346 7.551,-4.953 2.561,-1.583 5.135,-3.143 7.723,-4.679 2.601,-1.511 2531.896,-1333.346 2534.582,-1334.709 2.68,-1.373 58.522,-36.7282 60.948,-38.5067 2.435,-1.7649 4.881,-3.5137 7.339,-5.244 2.474,-1.7094 4.964,-3.3955 7.475,-5.0559 2.531,-1.6304 5.087,-3.2243 7.669,-4.775 2.61,-1.5007 5.251,-2.9448 7.924,-4.3254 2.708,-1.3104 5.453,-2.544 8.237,-3.6924 2.829,-1.0358 5.707,-1.9193 8.64,-2.6106 2.983,-0.4693 5.993,-0.7007 9.006,-0.6791 2.994,0.2894 5.945,0.8616 8.831,1.7229 2.805,1.1173 5.516,2.4457 13.735,8.5184 8.105,9.6065 9.444,14.8589 10.126,20.2327 0.487,5.4061 0.934,10.8152 1.345,16.2267 0.377,5.4139 0.722,10.8298 1.039,16.2474 0.291,5.419 0.559,10.84 0.806,16.262 0.229,5.423 0.444,10.846 0.646,16.27 0.192,5.424 0.376,10.848 0.55,16.272 0.167,5.425 0.326,10.85 0.477,16.274 0.144,5.425 0.281,10.85 0.411,16.276 0.124,5.425 0.241,10.85 0.353,16.276 0.107,5.425 0.208,10.851 0.305,16.277 0.09,5.425 0.179,10.851 0.263,16.277 0.08,5.426 5.276,1036.466 5.286,1041.892 0.01,5.427 1.898,7108.864 1.897,7114.29 0,0 -5.259,4716.064 -5.289,4721.504 -0.04,5.438 -0.08,10.873 -0.133,16.307 -0.06,5.43 -0.125,10.857 -0.201,16.282 -0.08,5.421 -0.172,10.835 -0.282,16.252 -0.11,5.406 -0.233,10.812 -0.377,16.218 -0.144,5.393 -0.303,10.785 -0.485,16.177 -0.181,5.378 -0.382,10.756 -0.605,16.132 -0.223,5.362 -0.477,10.723 -0.734,16.083 -0.257,5.356 -0.543,10.71 -0.806,16.066 -0.263,5.367 -0.539,10.734 -0.773,16.102 -0.235,5.396 -0.464,10.793 -0.635,16.192 -0.173,5.445 -0.321,10.89 -0.395,16.337 -0.08,5.511 -0.1,11.024 -0.05,16.535 0.05,5.591 0.455,11.179 0.347,16.769 -0.106,5.488 0.226,11.083 -0.979,16.438 -1.172,5.206 -3.288,10.244 -5.988,14.847 -2.744,4.678 -6.212,8.999 -10.199,12.675 -3.973,3.663 -8.396,7.101 -13.414,9.107 -5,1.999 -10.579,3.185 -15.936,2.639 -5.339,-0.544 -10.272,-3.292 -15.026,-5.782 -4.801,-2.515 -8.777,-6.387 -13.44,-9.149 -4.669,-2.766 -9.61,-5.048 -14.499,-7.402 -4.889,-2.353 -9.845,-4.57 -14.829,-6.715 -4.985,-2.145 -10.071,-4.047 -15.073,-6.152 -5.001,-2.104 -10.016,-4.183 -14.934,-6.473 -4.919,-2.291 -9.764,-4.742 -14.568,-7.266 -4.803,-2.524 -9.494,-5.257 -14.247,-7.874 -75.823,-41.737 -222.969,-122.133 -227.682,-124.824 -4.74,-2.644 -8074.971,-4237.792 -8079.929,-4240 -4.985,-2.143 -701.782,-362.255 -1050.478,-547.553 -43.021,-22.861 -84.623,-48.464 -128.513,-69.609 -4.891,-2.356 -9.981,-4.274 -14.991,-6.365 -5.01,-2.092 -10.032,-4.155 -15.068,-6.184 -5.035,-2.029 -10.082,-4.027 -15.144,-5.988 -5.059,-1.96 -10.13,-3.888 -15.216,-5.774 -5.083,-1.885 -10.172,-3.756 -15.291,-5.54 -5.121,-1.785 -10.25,-3.551 -15.427,-5.167 -5.197,-1.623 -10.326,-3.603 -15.688,-4.547 -5.276,-0.928 -10.744,-1.89 -16.037,-1.064 -5.359,0.836 -10.24,3.637 -15.136,5.972 -4.896,2.335 -9.514,5.216 -14.168,8.002 -4.654,2.786 -9.053,5.989 -13.747,8.707 -4.696,2.719 -9.538,5.183 -14.4,7.591 -4.863,2.408 -9.904,4.444 -14.766,6.853 -48.423,23.987 -95.512,50.576 -143.3928,75.627 -330.8264,173.087 -989.3514,513.52 -994.1895,515.978 -4.8768,2.384 -5570.2252,2876.317 -5575.1127,2878.681 -4.856,2.424 -1461.0235,750.91 -2186.6739,1135.629 -85.933,45.559 -169.6646,95.304 -256.629,138.862 -4.85514,2.432 -9.83208,4.614 -14.7889,6.831 -4.95671,2.217 -9.93637,4.385 -14.94952,6.471 -5.00981,2.085 -10.04576,4.109 -15.11631,6.042 -5.066,1.931 -10.15004,3.821 -15.28932,5.547 -5.13692,1.726 -10.27344,3.491 -15.53035,4.806 -5.29834,1.326 -10.64765,3.566 -16.08937,3.099 -5.17927,-0.444 -10.38745,-2.451 -14.5875,-5.514 -4.37719,-3.192 -7.16362,-8.178 -10.11797,-12.719 -2.95699,-4.545 -5.44253,-9.414 -7.53457,-14.417 -2.086,-4.988 -3.92891,-10.136 -4.95749,-15.444 -1.03558,-5.344 -0.90207,-10.851 -1.17816,-16.288 -0.27666,-5.448 -0.29472,-10.905 -0.47898,-16.357 -0.18321,-5.421 -0.41277,-10.839 -0.62298,-16.259 -0.2097,-5.406 -0.4424,-10.812 -0.63675,-16.219 -0.19446,-5.41 -0.40059,-10.82 -0.52966,-16.232 -0.77661,-32.564 -1.22987,-65.137 -1.4725,-97.709 -7.15451,-960.475 -0.46506,-1921.003 0.49426,-2881.504 0.0596,-59.693 0.21823,-119.385 0.327,-179.078 0.01,-5.427 0.0197,-10.853 0.0296,-16.28 0.01,-5.427 0.0198,-10.853 0.0296,-16.28 0.0131,-7.236 -1.9588,-14.753 0.0393,-21.707 1.26214,-4.393 4.27845,-8.167 7.25736,-11.634 2.072,-2.411 4.82773,-4.138 7.2405,-6.208 2.4135,-2.071 4.82062,-4.149 7.23831,-6.215 2.41866,-2.067 4.63466,-4.402 7.27069,-6.183 44.42562,-30.019 94.75054,-50.219 142.39381,-74.814 233.7134,-120.65 700.9173,-355.404 703.7336,-356.881 2.8262,-1.458 4632.4668,-2330.696 4635.353,-2332.03 2.8988,-1.307 2382.4398,-1208.178 3579.892,-1799.762 76.4642,-37.776 149.7012,-83.485 230.1762,-111.725 3.001,-1.053 6.194,-1.451 9.305,-2.111 3.113,-0.66 6.235,-1.282 9.366,-1.848 3.131,-0.566 6.271,-1.09 9.42,-1.548 3.147,-0.458 6.302,-0.866 9.465,-1.201 3.161,-0.335 6.33,-0.609 9.503,-0.81 3.173,-0.201 6.351,-0.334 9.53,-0.397 3.179,-0.06 6.36,-0.05 9.539,0.02 3.18,0.07 6.358,0.215 9.532,0.423 3.174,0.208 6.345,0.484 9.508,0.825 3.163,0.341 6.319,0.75 9.465,1.223 3.146,0.473 6.283,1.012 9.406,1.616 3.123,0.604 6.235,1.271 9.33,2.006 3.094,0.734 6.174,1.533 9.233,2.4 3.059,0.867 6.101,1.799 9.118,2.801 3.017,1.002 6.012,2.073 8.981,3.209 2.97,1.136 5.914,2.342 8.833,3.604 2.92,1.263 5.836,2.544 8.679,3.971 53.825,27.014 105.34,58.415 158.449,86.81 100.612,53.792 202.224,105.693 303.47,158.282 1893.499,983.513 5682.606,2939.567 5685.499,2940.887 2.887,1.334 460.297,241.994 463.101,243.491 2.808,1.491 5.62,2.976 8.435,4.453 2.819,1.471 5.642,2.936 8.468,4.394 2.83,1.452 5.664,2.897 8.502,4.336 2.841,1.431 5.687,2.854 8.537,4.268 2.855,1.405 5.714,2.801 8.578,4.186 2.87,1.374 5.745,2.736 8.625,4.086 2.886,1.337 5.778,2.661 8.675,3.971 2.905,1.295 5.815,2.575 8.732,3.839 2.924,1.248 5.854,2.479 8.792,3.692 2.946,1.195 5.898,2.371 8.859,3.528 2.968,1.137 5.944,2.253 8.929,3.348 2.993,1.074 5.994,2.125 9.005,3.152 3.02,1.001 6.049,1.974 9.088,2.915 3.049,0.906 6.109,1.776 9.18,2.606 3.083,0.787 6.177,1.53 9.283,2.224 3.119,0.644 6.25,1.233 9.393,1.757 3.152,0.444 6.313,0.795 9.481,1.036 3.172,0.12 6.348,0.103 9.525,-0.07 3.175,-0.337 6.32,-0.9 9.388,-1.773 2.943,-1.262 5.666,-2.944 8.048,-5.051"
     fill="none"
     stroke="#000000"
     stroke-width="23.73"
     id="path1"
     sodipodi:nodetypes="aaaaaaaaaaaaaaaaaaaaaaaaaaaaaaaccccccccccccccccccsssssssssssssssssssaaaaaaaaaaaaaaaaaaaaaaaaaaaaaaaaaaassssssssssssscccssaaaaaaaaaaaaaaaaaaaacaacccccaaaaaaaaaaaaaaaaaaaczzzzzzaaaaaaaaaaaaasssssscccccccccccccccccaaaaaaaaaaaaaaaaaaaaaaaaaaaaaaaaaaaaaaaaaaaaaaaaaaaaaaasssccccccccccccccccccccccccccaaaaaaaaaaaaaaaaaaaaaaaaaaaaaaaaaaaaaaaaaaaaaaaaaaaaaaaaaaaaaaaaaaaaaaaaaaaaaaaaaaaaaaaaaaaaaaaaaaaaaaaaaaaaaaaaaaaaaaaaaaaaaaaaaaaaaaaaaaaaaaaaaaaaaaaaaaaaaaaassssccccccccccssscccccccccccccccccccccccccccaaaaaaaaaaaaacccccsccccccccccccccccccccccccccccccccccccccccccsssssccaaaaaaaaaaaaaaaaaaaaaaaaccaaaaaaaaaaaaaaaaccaaaaaaaaaaaaaaaaaaaaaaaaaaaaccaaaaaaaaaaaaaaaaaaaaacccccccccccccccccccccc" />
</svg>
